<svg xmlns="http://www.w3.org/2000/svg" xmlns:xlink="http://www.w3.org/1999/xlink" width="800" zoomAndPan="magnify" viewBox="0 0 600 525.000007" height="700" preserveAspectRatio="xMidYMid meet" version="1.0"><defs><g/><clipPath id="id1"><path d="M 46 460 L 187 460 L 187 482.050781 L 46 482.050781 Z M 46 460 " clip-rule="nonzero"/></clipPath><clipPath id="id2"><path d="M 164 473 L 174 473 L 174 482.050781 L 164 482.050781 Z M 164 473 " clip-rule="nonzero"/></clipPath><clipPath id="id3"><path d="M 146 473 L 156 473 L 156 482.050781 L 146 482.050781 Z M 146 473 " clip-rule="nonzero"/></clipPath><clipPath id="id4"><path d="M 129 473 L 139 473 L 139 482.050781 L 129 482.050781 Z M 129 473 " clip-rule="nonzero"/></clipPath><clipPath id="id5"><path d="M 112 473 L 121 473 L 121 482.050781 L 112 482.050781 Z M 112 473 " clip-rule="nonzero"/></clipPath><clipPath id="id6"><path d="M 94 473 L 104 473 L 104 482.050781 L 94 482.050781 Z M 94 473 " clip-rule="nonzero"/></clipPath><clipPath id="id7"><path d="M 77 473 L 86 473 L 86 482.050781 L 77 482.050781 Z M 77 473 " clip-rule="nonzero"/></clipPath><clipPath id="id8"><path d="M 59 473 L 69 473 L 69 482.050781 L 59 482.050781 Z M 59 473 " clip-rule="nonzero"/></clipPath><clipPath id="id9"><path d="M 46 272.453125 L 187 272.453125 L 187 295 L 46 295 Z M 46 272.453125 " clip-rule="nonzero"/></clipPath><clipPath id="id10"><path d="M 157 151 L 201.800781 151 L 201.800781 232 L 157 232 Z M 157 151 " clip-rule="nonzero"/></clipPath><clipPath id="id11"><path d="M 52.835938 232 L 88 232 L 88 275 L 52.835938 275 Z M 52.835938 232 " clip-rule="nonzero"/></clipPath><clipPath id="id12"><path d="M 52.835938 153 L 124 153 L 124 235 L 52.835938 235 Z M 52.835938 153 " clip-rule="nonzero"/></clipPath><clipPath id="id13"><path d="M 481.441406 416.464844 L 547.316406 416.464844 L 547.316406 482.339844 L 481.441406 482.339844 Z M 481.441406 416.464844 " clip-rule="nonzero"/></clipPath><clipPath id="id14"><path d="M 481.441406 421 L 498 421 L 498 451 L 481.441406 451 Z M 481.441406 421 " clip-rule="nonzero"/></clipPath><clipPath id="id15"><path d="M 513 466 L 543 466 L 543 482.339844 L 513 482.339844 Z M 513 466 " clip-rule="nonzero"/></clipPath><clipPath id="id16"><path d="M 481.441406 416.464844 L 527 416.464844 L 527 462 L 481.441406 462 Z M 481.441406 416.464844 " clip-rule="nonzero"/></clipPath><clipPath id="id17"><path d="M 502 437 L 547.316406 437 L 547.316406 482.339844 L 502 482.339844 Z M 502 437 " clip-rule="nonzero"/></clipPath><clipPath id="id18"><path d="M 502 466 L 519 466 L 519 482.339844 L 502 482.339844 Z M 502 466 " clip-rule="nonzero"/></clipPath><clipPath id="id19"><path d="M 481.441406 445 L 498 445 L 498 462 L 481.441406 462 Z M 481.441406 445 " clip-rule="nonzero"/></clipPath></defs><path fill="#ffd2a6" d="M 138.199219 285.550781 L 94.535156 285.550781 C 92.125 285.550781 90.171875 287.507812 90.171875 289.921875 L 90.171875 464.589844 C 90.171875 466.996094 92.125 468.953125 94.535156 468.953125 L 138.199219 468.953125 C 140.617188 468.953125 142.574219 466.996094 142.574219 464.589844 L 142.574219 289.921875 C 142.574219 287.507812 140.617188 285.550781 138.199219 285.550781 Z M 138.199219 285.550781 " fill-opacity="1" fill-rule="nonzero"/><path fill="#eaad7a" d="M 90.171875 303.019531 L 142.574219 303.019531 L 142.574219 311.75 L 90.171875 311.75 Z M 90.171875 303.019531 " fill-opacity="1" fill-rule="nonzero"/><path fill="#eaad7a" d="M 90.171875 320.484375 L 142.574219 320.484375 L 142.574219 329.21875 L 90.171875 329.21875 Z M 90.171875 320.484375 " fill-opacity="1" fill-rule="nonzero"/><path fill="#eaad7a" d="M 90.171875 337.949219 L 142.574219 337.949219 L 142.574219 346.683594 L 90.171875 346.683594 Z M 90.171875 337.949219 " fill-opacity="1" fill-rule="nonzero"/><path fill="#eaad7a" d="M 90.171875 355.417969 L 142.574219 355.417969 L 142.574219 364.148438 L 90.171875 364.148438 Z M 90.171875 355.417969 " fill-opacity="1" fill-rule="nonzero"/><path fill="#eaad7a" d="M 90.171875 372.886719 L 142.574219 372.886719 L 142.574219 381.621094 L 90.171875 381.621094 Z M 90.171875 372.886719 " fill-opacity="1" fill-rule="nonzero"/><path fill="#eaad7a" d="M 90.171875 390.351562 L 142.574219 390.351562 L 142.574219 399.089844 L 90.171875 399.089844 Z M 90.171875 390.351562 " fill-opacity="1" fill-rule="nonzero"/><path fill="#eaad7a" d="M 90.171875 407.820312 L 142.574219 407.820312 L 142.574219 416.550781 L 90.171875 416.550781 Z M 90.171875 407.820312 " fill-opacity="1" fill-rule="nonzero"/><path fill="#eaad7a" d="M 90.171875 425.289062 L 142.574219 425.289062 L 142.574219 434.019531 L 90.171875 434.019531 Z M 90.171875 425.289062 " fill-opacity="1" fill-rule="nonzero"/><path fill="#eaad7a" d="M 90.171875 442.75 L 142.574219 442.75 L 142.574219 451.488281 L 90.171875 451.488281 Z M 90.171875 442.75 " fill-opacity="1" fill-rule="nonzero"/><path fill="#ffffff" d="M 138.199219 285.550781 L 133.835938 285.550781 C 136.246094 285.550781 138.199219 287.507812 138.199219 289.921875 L 138.199219 464.589844 C 138.199219 466.996094 136.246094 468.953125 133.835938 468.953125 L 138.199219 468.953125 C 140.617188 468.953125 142.574219 466.996094 142.574219 464.589844 L 142.574219 289.921875 C 142.574219 287.507812 140.617188 285.550781 138.199219 285.550781 Z M 138.199219 285.550781 " fill-opacity="0.2" fill-rule="nonzero"/><path fill="#ffffff" d="M 94.535156 285.550781 L 98.902344 285.550781 C 96.488281 285.550781 94.535156 287.507812 94.535156 289.921875 L 94.535156 464.589844 C 94.535156 466.996094 96.488281 468.953125 98.902344 468.953125 L 94.535156 468.953125 C 92.125 468.953125 90.171875 466.996094 90.171875 464.589844 L 90.171875 289.921875 C 90.171875 287.507812 92.125 285.550781 94.535156 285.550781 Z M 94.535156 285.550781 " fill-opacity="0.2" fill-rule="nonzero"/><path fill="#e6e9ed" d="M 181.875 385.988281 C 179.457031 385.988281 177.5 384.03125 177.5 381.621094 L 177.5 289.921875 C 177.5 287.507812 179.457031 285.550781 181.875 285.550781 C 184.277344 285.550781 186.234375 287.507812 186.234375 289.921875 L 186.234375 381.621094 C 186.234375 384.03125 184.277344 385.988281 181.875 385.988281 Z M 181.875 385.988281 " fill-opacity="1" fill-rule="nonzero"/><path fill="#ec5564" d="M 206.476562 369.507812 C 205.464844 368.679688 204.132812 368.347656 202.847656 368.601562 L 181.875 372.800781 L 160.894531 368.601562 C 159.613281 368.347656 158.285156 368.679688 157.265625 369.507812 C 156.257812 370.339844 155.675781 371.578125 155.675781 372.886719 L 155.675781 390.351562 C 155.675781 391.664062 156.257812 392.898438 157.265625 393.730469 C 158.285156 394.5625 159.613281 394.894531 160.894531 394.636719 L 181.875 390.441406 L 202.847656 394.636719 C 203.136719 394.6875 203.417969 394.722656 203.699219 394.722656 C 204.703125 394.722656 205.683594 394.375 206.476562 393.730469 C 207.484375 392.898438 208.074219 391.664062 208.074219 390.351562 L 208.074219 372.886719 C 208.074219 371.578125 207.484375 370.339844 206.476562 369.507812 Z M 206.476562 369.507812 " fill-opacity="1" fill-rule="nonzero"/><g clip-path="url(#id1)"><path fill="#965353" d="M 181.875 460.222656 L 50.871094 460.222656 C 48.457031 460.222656 46.5 462.171875 46.5 464.589844 L 46.5 477.691406 C 46.5 480.09375 48.457031 482.050781 50.871094 482.050781 L 181.875 482.050781 C 184.277344 482.050781 186.234375 480.09375 186.234375 477.691406 L 186.234375 464.589844 C 186.234375 462.171875 184.277344 460.222656 181.875 460.222656 Z M 181.875 460.222656 " fill-opacity="1" fill-rule="nonzero"/></g><g clip-path="url(#id2)"><path fill="#7f4545" d="M 168.773438 473.320312 C 166.355469 473.320312 164.398438 475.273438 164.398438 477.691406 L 164.398438 482.050781 L 173.136719 482.050781 L 173.136719 477.691406 C 173.136719 475.273438 171.179688 473.320312 168.773438 473.320312 Z M 168.773438 473.320312 " fill-opacity="1" fill-rule="nonzero"/></g><g clip-path="url(#id3)"><path fill="#7f4545" d="M 151.296875 473.320312 C 148.894531 473.320312 146.9375 475.273438 146.9375 477.691406 L 146.9375 482.050781 L 155.671875 482.050781 L 155.671875 477.691406 C 155.671875 475.273438 153.714844 473.320312 151.296875 473.320312 Z M 151.296875 473.320312 " fill-opacity="1" fill-rule="nonzero"/></g><g clip-path="url(#id4)"><path fill="#7f4545" d="M 133.835938 473.320312 C 131.425781 473.320312 129.46875 475.273438 129.46875 477.691406 L 129.46875 482.050781 L 138.199219 482.050781 L 138.199219 477.691406 C 138.199219 475.273438 136.246094 473.320312 133.835938 473.320312 Z M 133.835938 473.320312 " fill-opacity="1" fill-rule="nonzero"/></g><g clip-path="url(#id5)"><path fill="#7f4545" d="M 116.371094 473.320312 C 113.957031 473.320312 112 475.273438 112 477.691406 L 112 482.050781 L 120.734375 482.050781 L 120.734375 477.691406 C 120.734375 475.273438 118.78125 473.320312 116.371094 473.320312 Z M 116.371094 473.320312 " fill-opacity="1" fill-rule="nonzero"/></g><g clip-path="url(#id6)"><path fill="#7f4545" d="M 98.902344 473.320312 C 96.488281 473.320312 94.535156 475.273438 94.535156 477.691406 L 94.535156 482.050781 L 103.269531 482.050781 L 103.269531 477.691406 C 103.269531 475.273438 101.3125 473.320312 98.902344 473.320312 Z M 98.902344 473.320312 " fill-opacity="1" fill-rule="nonzero"/></g><g clip-path="url(#id7)"><path fill="#7f4545" d="M 81.4375 473.320312 C 79.023438 473.320312 77.070312 475.273438 77.070312 477.691406 L 77.070312 482.050781 L 85.800781 482.050781 L 85.800781 477.691406 C 85.800781 475.273438 83.847656 473.320312 81.4375 473.320312 Z M 81.4375 473.320312 " fill-opacity="1" fill-rule="nonzero"/></g><g clip-path="url(#id8)"><path fill="#7f4545" d="M 63.96875 473.320312 C 61.558594 473.320312 59.601562 475.273438 59.601562 477.691406 L 59.601562 482.050781 L 68.335938 482.050781 L 68.335938 477.691406 C 68.335938 475.273438 66.382812 473.320312 63.96875 473.320312 Z M 63.96875 473.320312 " fill-opacity="1" fill-rule="nonzero"/></g><g clip-path="url(#id9)"><path fill="#965353" d="M 181.875 272.453125 L 50.871094 272.453125 C 48.457031 272.453125 46.5 274.410156 46.5 276.820312 L 46.5 289.921875 C 46.5 292.332031 48.457031 294.285156 50.871094 294.285156 L 181.875 294.285156 C 184.277344 294.285156 186.234375 292.332031 186.234375 289.921875 L 186.234375 276.820312 C 186.234375 274.410156 184.277344 272.453125 181.875 272.453125 Z M 181.875 272.453125 " fill-opacity="1" fill-rule="nonzero"/></g><g clip-path="url(#id10)"><path fill="#967a4a" d="M 179.695312 231.222656 C 177.269531 231.222656 175.308594 229.257812 175.308594 226.835938 C 175.308594 224.410156 177.269531 222.449219 179.695312 222.449219 C 187.046875 222.449219 193.027344 216.464844 193.027344 209.113281 C 193.027344 201.761719 187.046875 195.777344 179.695312 195.777344 C 167.503906 195.777344 157.585938 185.859375 157.585938 173.667969 C 157.585938 161.476562 167.503906 151.558594 179.695312 151.558594 C 182.117188 151.558594 184.082031 153.523438 184.082031 155.945312 C 184.082031 158.371094 182.117188 160.335938 179.695312 160.335938 C 172.339844 160.335938 166.359375 166.316406 166.359375 173.667969 C 166.359375 181.019531 172.339844 187.003906 179.695312 187.003906 C 191.882812 187.003906 201.800781 196.921875 201.800781 209.113281 C 201.800781 221.304688 191.882812 231.222656 179.695312 231.222656 Z M 179.695312 231.222656 " fill-opacity="1" fill-rule="nonzero"/></g><g clip-path="url(#id11)"><path fill="#826a40" d="M 77.773438 232.519531 C 72.464844 232.519531 68.160156 236.824219 68.160156 242.132812 L 68.160156 262.109375 L 59.257812 262.109375 C 55.71875 262.109375 52.851562 264.980469 52.851562 268.519531 L 52.851562 272.035156 C 52.851562 273.632812 54.144531 274.929688 55.742188 274.929688 L 80.980469 274.929688 C 84.519531 274.929688 87.386719 272.058594 87.386719 268.519531 L 87.386719 242.132812 C 87.386719 236.824219 83.082031 232.519531 77.773438 232.519531 Z M 77.773438 232.519531 " fill-opacity="1" fill-rule="nonzero"/></g><path fill="#967a4a" d="M 157.027344 201.894531 L 74.019531 201.894531 L 74.019531 244.152344 C 74.019531 260.046875 86.90625 272.933594 102.800781 272.933594 L 157.027344 272.933594 L 157.027344 272.730469 C 176.585938 272.730469 192.445312 256.871094 192.445312 237.3125 C 192.445312 217.75 176.585938 201.894531 157.027344 201.894531 Z M 157.027344 201.894531 " fill-opacity="1" fill-rule="nonzero"/><path fill="#65513c" d="M 119.648438 201.894531 L 119.648438 222.71875 C 119.648438 226.660156 122.84375 229.855469 126.785156 229.855469 C 130.726562 229.855469 133.921875 226.660156 133.921875 222.71875 L 133.921875 201.894531 Z M 119.648438 201.894531 " fill-opacity="1" fill-rule="nonzero"/><path fill="#65513c" d="M 144.476562 201.894531 L 144.476562 222.71875 C 144.476562 226.660156 147.671875 229.855469 151.613281 229.855469 C 155.558594 229.855469 158.753906 226.660156 158.753906 222.71875 L 158.753906 201.894531 Z M 144.476562 201.894531 " fill-opacity="1" fill-rule="nonzero"/><path fill="#ad8d56" d="M 160.535156 225.824219 C 146.976562 225.824219 135.984375 236.816406 135.984375 250.375 C 135.984375 254.625 137.0625 258.625 138.964844 262.109375 L 136.375 262.109375 C 132.835938 262.109375 129.96875 264.980469 129.96875 268.519531 L 129.96875 272.035156 C 129.96875 273.632812 131.261719 274.929688 132.859375 274.929688 L 160.535156 274.929688 C 174.09375 274.929688 185.089844 263.9375 185.089844 250.375 C 185.089844 236.816406 174.09375 225.824219 160.535156 225.824219 Z M 160.535156 225.824219 " fill-opacity="1" fill-rule="nonzero"/><path fill="#ad8d56" d="M 110.128906 232.519531 C 104.820312 232.519531 100.515625 236.824219 100.515625 242.132812 L 100.515625 262.109375 L 91.613281 262.109375 C 88.074219 262.109375 85.207031 264.980469 85.207031 268.519531 L 85.207031 272.035156 C 85.207031 273.632812 86.5 274.929688 88.097656 274.929688 L 113.335938 274.929688 C 116.875 274.929688 119.742188 272.058594 119.742188 268.519531 L 119.742188 242.132812 C 119.742188 236.824219 115.4375 232.519531 110.128906 232.519531 Z M 110.128906 232.519531 " fill-opacity="1" fill-rule="nonzero"/><g clip-path="url(#id12)"><path fill="#967a4a" d="M 123.003906 173.101562 L 123.003906 157.046875 C 123.003906 155.195312 121.507812 153.699219 119.660156 153.699219 C 118.777344 153.699219 117.976562 154.039062 117.378906 154.59375 L 104.628906 167.34375 C 99.847656 164.152344 94.101562 162.285156 87.921875 162.285156 C 81.738281 162.285156 75.996094 164.152344 71.214844 167.34375 L 58.464844 154.59375 C 57.867188 154.039062 57.066406 153.699219 56.183594 153.699219 C 54.335938 153.699219 52.835938 155.195312 52.835938 157.046875 L 52.835938 197.445312 C 52.835938 216.820312 68.542969 234.894531 87.921875 234.894531 C 107.296875 234.894531 123.007812 216.820312 123.007812 197.445312 Z M 123.003906 173.101562 " fill-opacity="1" fill-rule="nonzero"/></g><path fill="#ffffff" d="M 94.863281 196.691406 L 80.976562 196.691406 C 76.753906 196.691406 73.332031 200.117188 73.332031 204.335938 C 73.332031 208.558594 76.753906 211.984375 80.976562 211.984375 C 84.0625 211.984375 86.710938 210.152344 87.921875 207.523438 C 89.128906 210.152344 91.78125 211.984375 94.863281 211.984375 C 99.085938 211.984375 102.511719 208.558594 102.511719 204.335938 C 102.511719 200.113281 99.085938 196.691406 94.863281 196.691406 Z M 94.863281 196.691406 " fill-opacity="1" fill-rule="nonzero"/><path fill="#333e48" d="M 71.222656 189.976562 C 71.222656 190.4375 71.132812 190.886719 70.957031 191.316406 C 70.777344 191.742188 70.527344 192.121094 70.199219 192.449219 C 69.871094 192.777344 69.492188 193.03125 69.0625 193.210938 C 68.632812 193.386719 68.1875 193.476562 67.722656 193.476562 C 67.257812 193.476562 66.8125 193.386719 66.382812 193.210938 C 65.953125 193.03125 65.574219 192.777344 65.246094 192.449219 C 64.917969 192.121094 64.664062 191.742188 64.488281 191.316406 C 64.308594 190.886719 64.222656 190.4375 64.222656 189.976562 C 64.222656 189.511719 64.308594 189.0625 64.488281 188.636719 C 64.664062 188.207031 64.917969 187.828125 65.246094 187.5 C 65.574219 187.171875 65.953125 186.917969 66.382812 186.742188 C 66.8125 186.5625 67.257812 186.472656 67.722656 186.472656 C 68.1875 186.472656 68.632812 186.5625 69.0625 186.742188 C 69.492188 186.917969 69.871094 187.171875 70.199219 187.5 C 70.527344 187.828125 70.777344 188.207031 70.957031 188.636719 C 71.132812 189.0625 71.222656 189.511719 71.222656 189.976562 Z M 71.222656 189.976562 " fill-opacity="1" fill-rule="nonzero"/><path fill="#333e48" d="M 111.621094 189.976562 C 111.621094 190.4375 111.53125 190.886719 111.351562 191.3125 C 111.175781 191.742188 110.921875 192.121094 110.59375 192.449219 C 110.265625 192.777344 109.886719 193.03125 109.457031 193.207031 C 109.03125 193.386719 108.582031 193.476562 108.121094 193.476562 C 107.65625 193.476562 107.207031 193.386719 106.78125 193.207031 C 106.351562 193.03125 105.972656 192.777344 105.644531 192.449219 C 105.316406 192.121094 105.0625 191.742188 104.886719 191.3125 C 104.707031 190.886719 104.617188 190.4375 104.617188 189.976562 C 104.617188 189.511719 104.707031 189.0625 104.886719 188.636719 C 105.0625 188.207031 105.316406 187.828125 105.644531 187.5 C 105.972656 187.171875 106.351562 186.917969 106.78125 186.742188 C 107.207031 186.5625 107.65625 186.472656 108.121094 186.472656 C 108.582031 186.472656 109.03125 186.5625 109.457031 186.742188 C 109.886719 186.917969 110.265625 187.171875 110.59375 187.5 C 110.921875 187.828125 111.175781 188.207031 111.351562 188.636719 C 111.53125 189.0625 111.621094 189.511719 111.621094 189.976562 Z M 111.621094 189.976562 " fill-opacity="1" fill-rule="nonzero"/><path fill="#333e48" d="M 92.253906 201.785156 C 90.058594 204.0625 86.402344 204.128906 84.125 201.929688 L 81.589844 199.480469 C 79.3125 197.28125 80.039062 195.484375 83.203125 195.484375 L 92.578125 195.484375 C 95.742188 195.484375 96.53125 197.347656 94.335938 199.625 Z M 92.253906 201.785156 " fill-opacity="1" fill-rule="nonzero"/><path stroke-linecap="round" transform="matrix(0.407027, 0, 0, 0.407027, 52.836325, 138.76126)" fill="none" stroke-linejoin="round" d="M 61.746303 163.89911 L 27.801628 171.845446 " stroke="#333e48" stroke-width="3" stroke-opacity="1" stroke-miterlimit="10"/><path stroke-linecap="round" transform="matrix(0.407027, 0, 0, 0.407027, 52.836325, 138.76126)" fill="none" stroke-linejoin="round" d="M 65.49874 171.375192 L 37.50422 188.179582 " stroke="#333e48" stroke-width="3" stroke-opacity="1" stroke-miterlimit="10"/><path stroke-linecap="round" transform="matrix(0.407027, 0, 0, 0.407027, 52.836325, 138.76126)" fill="none" stroke-linejoin="round" d="M 59.615764 155.655266 L 25.306402 154.359668 " stroke="#333e48" stroke-width="3" stroke-opacity="1" stroke-miterlimit="10"/><path stroke-linecap="round" transform="matrix(0.407027, 0, 0, 0.407027, 52.836325, 138.76126)" fill="none" stroke-linejoin="round" d="M 110.65274 163.89911 L 144.587818 171.845446 " stroke="#333e48" stroke-width="3" stroke-opacity="1" stroke-miterlimit="10"/><path stroke-linecap="round" transform="matrix(0.407027, 0, 0, 0.407027, 52.836325, 138.76126)" fill="none" stroke-linejoin="round" d="M 106.900303 171.375192 L 134.894823 188.179582 " stroke="#333e48" stroke-width="3" stroke-opacity="1" stroke-miterlimit="10"/><path stroke-linecap="round" transform="matrix(0.407027, 0, 0, 0.407027, 52.836325, 138.76126)" fill="none" stroke-linejoin="round" d="M 112.783279 155.655266 L 147.083044 154.359668 " stroke="#333e48" stroke-width="3" stroke-opacity="1" stroke-miterlimit="10"/><path fill="#65513c" d="M 87.921875 162.285156 C 85.460938 162.285156 83.074219 162.589844 80.785156 163.144531 L 80.785156 172.996094 C 80.785156 176.9375 83.980469 180.132812 87.921875 180.132812 C 91.863281 180.132812 95.058594 176.9375 95.058594 172.996094 L 95.058594 163.144531 C 92.769531 162.589844 90.382812 162.285156 87.921875 162.285156 Z M 87.921875 162.285156 " fill-opacity="1" fill-rule="nonzero"/><g clip-path="url(#id13)"><path fill="#2ba5f7" d="M 547.316406 449.402344 C 547.316406 450.480469 547.261719 451.554688 547.15625 452.628906 C 547.050781 453.703125 546.894531 454.769531 546.683594 455.828125 C 546.472656 456.882812 546.210938 457.929688 545.898438 458.960938 C 545.582031 459.996094 545.222656 461.007812 544.808594 462.003906 C 544.394531 463 543.933594 463.976562 543.425781 464.925781 C 542.917969 465.878906 542.363281 466.800781 541.765625 467.699219 C 541.164062 468.597656 540.523438 469.460938 539.839844 470.296875 C 539.15625 471.128906 538.429688 471.929688 537.667969 472.691406 C 536.90625 473.453125 536.105469 474.175781 535.273438 474.863281 C 534.4375 475.546875 533.574219 476.1875 532.675781 476.785156 C 531.78125 477.386719 530.855469 477.941406 529.90625 478.449219 C 528.953125 478.957031 527.980469 479.417969 526.980469 479.832031 C 525.984375 480.242188 524.972656 480.605469 523.9375 480.917969 C 522.90625 481.234375 521.863281 481.496094 520.804688 481.703125 C 519.746094 481.914062 518.679688 482.074219 517.605469 482.179688 C 516.53125 482.285156 515.457031 482.339844 514.378906 482.339844 C 513.300781 482.339844 512.222656 482.285156 511.148438 482.179688 C 510.074219 482.074219 509.011719 481.914062 507.953125 481.703125 C 506.894531 481.496094 505.847656 481.234375 504.816406 480.917969 C 503.785156 480.605469 502.769531 480.242188 501.773438 479.832031 C 500.777344 479.417969 499.800781 478.957031 498.851562 478.449219 C 497.898438 477.941406 496.976562 477.386719 496.078125 476.785156 C 495.183594 476.1875 494.316406 475.546875 493.484375 474.863281 C 492.648438 474.175781 491.851562 473.453125 491.085938 472.691406 C 490.324219 471.929688 489.601562 471.128906 488.917969 470.296875 C 488.234375 469.460938 487.589844 468.597656 486.992188 467.699219 C 486.390625 466.800781 485.839844 465.878906 485.328125 464.925781 C 484.820312 463.976562 484.359375 463 483.949219 462.003906 C 483.535156 461.007812 483.171875 459.996094 482.859375 458.960938 C 482.546875 457.929688 482.285156 456.882812 482.074219 455.828125 C 481.863281 454.769531 481.703125 453.703125 481.597656 452.628906 C 481.492188 451.554688 481.441406 450.480469 481.441406 449.402344 C 481.441406 448.320312 481.492188 447.246094 481.597656 446.171875 C 481.703125 445.097656 481.863281 444.03125 482.074219 442.976562 C 482.285156 441.917969 482.546875 440.871094 482.859375 439.839844 C 483.171875 438.808594 483.535156 437.792969 483.949219 436.796875 C 484.359375 435.800781 484.820312 434.824219 485.328125 433.875 C 485.839844 432.921875 486.390625 432 486.992188 431.101562 C 487.589844 430.203125 488.234375 429.339844 488.917969 428.503906 C 489.601562 427.671875 490.324219 426.875 491.085938 426.109375 C 491.851562 425.347656 492.648438 424.625 493.484375 423.941406 C 494.316406 423.253906 495.183594 422.613281 496.078125 422.015625 C 496.976562 421.414062 497.898438 420.859375 498.851562 420.351562 C 499.800781 419.84375 500.777344 419.382812 501.773438 418.96875 C 502.769531 418.558594 503.785156 418.195312 504.816406 417.882812 C 505.847656 417.570312 506.894531 417.308594 507.953125 417.097656 C 509.011719 416.886719 510.074219 416.726562 511.148438 416.621094 C 512.222656 416.515625 513.300781 416.464844 514.378906 416.464844 C 515.457031 416.464844 516.53125 416.515625 517.605469 416.621094 C 518.679688 416.726562 519.746094 416.886719 520.804688 417.097656 C 521.863281 417.308594 522.90625 417.570312 523.9375 417.882812 C 524.972656 418.195312 525.984375 418.558594 526.980469 418.96875 C 527.980469 419.382812 528.953125 419.84375 529.90625 420.351562 C 530.855469 420.859375 531.78125 421.414062 532.675781 422.015625 C 533.574219 422.613281 534.4375 423.253906 535.273438 423.941406 C 536.105469 424.625 536.90625 425.347656 537.667969 426.109375 C 538.429688 426.875 539.15625 427.671875 539.839844 428.503906 C 540.523438 429.339844 541.164062 430.203125 541.765625 431.101562 C 542.363281 432 542.917969 432.921875 543.425781 433.875 C 543.933594 434.824219 544.394531 435.800781 544.808594 436.796875 C 545.222656 437.792969 545.582031 438.808594 545.898438 439.839844 C 546.210938 440.871094 546.472656 441.917969 546.683594 442.976562 C 546.894531 444.03125 547.050781 445.097656 547.15625 446.171875 C 547.261719 447.246094 547.316406 448.320312 547.316406 449.402344 Z M 547.316406 449.402344 " fill-opacity="1" fill-rule="nonzero"/></g><g clip-path="url(#id14)"><path fill="#2197d8" d="M 497.183594 421.390625 C 492.648438 428.75 491.28125 437.507812 493.074219 445.710938 C 493.0625 445.714844 493.046875 445.722656 493.035156 445.730469 C 489.375 447.839844 485.5 449.429688 481.511719 450.496094 C 481.234375 441.722656 484.445312 432.863281 491.140625 426.167969 C 493.003906 424.304688 495.035156 422.714844 497.183594 421.390625 Z M 497.183594 421.390625 " fill-opacity="1" fill-rule="nonzero"/></g><path fill="#2197d8" d="M 501.902344 461.875 C 503.65625 463.628906 505.558594 465.144531 507.566406 466.417969 C 505.207031 470.75 503.433594 475.316406 502.242188 479.996094 C 502.238281 480.007812 502.238281 480.015625 502.234375 480.027344 C 498.175781 478.421875 494.371094 475.976562 491.085938 472.691406 C 487.804688 469.410156 485.359375 465.605469 483.75 461.542969 C 488.445312 460.351562 493.019531 458.574219 497.359375 456.214844 C 498.636719 458.222656 500.148438 460.125 501.902344 461.875 Z M 501.902344 461.875 " fill-opacity="1" fill-rule="nonzero"/><g clip-path="url(#id15)"><path fill="#2197d8" d="M 542.386719 466.597656 C 541.066406 468.742188 539.472656 470.773438 537.613281 472.636719 C 530.917969 479.332031 522.058594 482.542969 513.285156 482.269531 C 514.351562 478.28125 515.9375 474.402344 518.046875 470.742188 C 518.054688 470.730469 518.0625 470.71875 518.070312 470.707031 C 526.273438 472.5 535.027344 471.128906 542.386719 466.597656 Z M 542.386719 466.597656 " fill-opacity="1" fill-rule="nonzero"/></g><g clip-path="url(#id16)"><path fill="#f95428" d="M 515.484375 416.480469 C 519.238281 416.605469 522.976562 417.371094 526.519531 418.773438 C 524.855469 425.3125 522.0625 431.617188 518.140625 437.382812 C 513.8125 436.03125 501.007812 448.835938 502.359375 453.164062 C 496.59375 457.089844 490.285156 459.882812 483.75 461.546875 C 482.347656 458 481.582031 454.261719 481.457031 450.507812 L 481.460938 450.507812 C 489.363281 448.40625 496.832031 444.253906 503.03125 438.054688 C 509.230469 431.855469 513.378906 424.386719 515.484375 416.484375 Z M 515.484375 416.480469 " fill-opacity="1" fill-rule="nonzero"/></g><g clip-path="url(#id17)"><path fill="#f95428" d="M 545.003906 437.257812 C 546.40625 440.800781 547.171875 444.539062 547.296875 448.292969 C 539.394531 450.398438 531.921875 454.546875 525.722656 460.746094 C 519.523438 466.945312 515.375 474.417969 513.273438 482.320312 C 509.515625 482.195312 505.777344 481.429688 502.234375 480.027344 C 503.894531 473.492188 506.691406 467.183594 510.617188 461.417969 C 514.941406 462.769531 527.746094 449.964844 526.394531 445.640625 C 532.160156 441.714844 538.46875 438.921875 545.003906 437.257812 Z M 545.003906 437.257812 " fill-opacity="1" fill-rule="nonzero"/></g><g clip-path="url(#id18)"><path fill="#e54728" d="M 518.046875 470.742188 C 515.929688 474.417969 514.335938 478.3125 513.273438 482.320312 C 509.515625 482.195312 505.777344 481.429688 502.234375 480.027344 C 503.425781 475.335938 505.203125 470.761719 507.566406 466.417969 C 510.832031 468.492188 514.382812 469.933594 518.046875 470.742188 Z M 518.046875 470.742188 " fill-opacity="1" fill-rule="nonzero"/></g><g clip-path="url(#id19)"><path fill="#e54728" d="M 493.035156 445.730469 C 493.84375 449.394531 495.285156 452.945312 497.359375 456.214844 C 493.019531 458.574219 488.445312 460.351562 483.75 461.542969 C 482.347656 458 481.582031 454.265625 481.460938 450.507812 C 485.464844 449.441406 489.359375 447.847656 493.035156 445.730469 Z M 493.035156 445.730469 " fill-opacity="1" fill-rule="nonzero"/></g><path fill="#f7b239" d="M 526.394531 445.640625 C 527.746094 449.964844 526.707031 454.878906 523.28125 458.304688 C 519.851562 461.730469 514.941406 462.769531 510.617188 461.417969 C 508.734375 460.832031 506.964844 459.792969 505.476562 458.304688 C 503.984375 456.8125 502.945312 455.042969 502.359375 453.164062 L 502.363281 453.160156 C 501.007812 448.835938 502.046875 443.925781 505.476562 440.496094 C 508.902344 437.070312 513.8125 436.03125 518.140625 437.382812 C 520.019531 437.96875 521.792969 439.007812 523.28125 440.496094 C 524.769531 441.988281 525.808594 443.757812 526.394531 445.640625 Z M 526.394531 445.640625 " fill-opacity="1" fill-rule="nonzero"/><path fill="#ffffff" d="M 517.882812 442.523438 L 517.816406 447.648438 L 522 450.609375 L 517.105469 452.128906 L 515.585938 457.027344 L 512.625 452.839844 L 507.5 452.90625 L 510.566406 448.796875 L 508.917969 443.941406 L 513.773438 445.589844 Z M 517.882812 442.523438 " fill-opacity="1" fill-rule="nonzero"/><g fill="#000000" fill-opacity="1"><g transform="translate(267.729922, 253.036554)"><g><path d="M 11.453125 -22.671875 L 2.515625 -22.671875 L 3.59375 -27.9375 L 27.9375 -27.9375 L 26.875 -22.671875 L 17.96875 -22.671875 L 13.40625 0 L 6.953125 0 Z M 11.453125 -22.671875 "/></g></g></g><g fill="#000000" fill-opacity="1"><g transform="translate(292.400475, 253.036554)"><g><path d="M 17.53125 -21.796875 C 19.925781 -21.796875 21.828125 -21.15625 23.234375 -19.875 C 24.640625 -18.601562 25.34375 -16.796875 25.34375 -14.453125 C 25.34375 -13.597656 25.253906 -12.742188 25.078125 -11.890625 L 22.671875 0 L 16.453125 0 L 18.765625 -11.5 C 18.867188 -11.945312 18.921875 -12.4375 18.921875 -12.96875 C 18.921875 -14.09375 18.613281 -14.945312 18 -15.53125 C 17.394531 -16.113281 16.476562 -16.40625 15.25 -16.40625 C 13.65625 -16.40625 12.332031 -15.945312 11.28125 -15.03125 C 10.226562 -14.113281 9.515625 -12.738281 9.140625 -10.90625 L 6.984375 0 L 0.765625 0 L 6.671875 -29.625 L 12.890625 -29.625 L 10.90625 -19.515625 C 12.738281 -21.035156 14.945312 -21.796875 17.53125 -21.796875 Z M 17.53125 -21.796875 "/></g></g></g><g fill="#000000" fill-opacity="1"><g transform="translate(319.985184, 253.036554)"><g><path d="M 5.03125 -21.484375 L 11.21875 -21.484375 L 6.953125 0 L 0.765625 0 Z M 9.1875 -24.46875 C 8.125 -24.46875 7.25 -24.78125 6.5625 -25.40625 C 5.882812 -26.03125 5.546875 -26.796875 5.546875 -27.703125 C 5.546875 -28.765625 5.925781 -29.648438 6.6875 -30.359375 C 7.445312 -31.066406 8.441406 -31.421875 9.671875 -31.421875 C 10.753906 -31.421875 11.632812 -31.117188 12.3125 -30.515625 C 13 -29.921875 13.34375 -29.179688 13.34375 -28.296875 C 13.34375 -27.160156 12.953125 -26.238281 12.171875 -25.53125 C 11.398438 -24.820312 10.40625 -24.46875 9.1875 -24.46875 Z M 9.1875 -24.46875 "/></g></g></g><g fill="#000000" fill-opacity="1"><g transform="translate(331.961182, 253.036554)"><g><path d="M 8.578125 0.3125 C 6.710938 0.3125 4.945312 0.109375 3.28125 -0.296875 C 1.625 -0.710938 0.332031 -1.253906 -0.59375 -1.921875 L 1.796875 -6.421875 C 2.722656 -5.816406 3.859375 -5.328125 5.203125 -4.953125 C 6.546875 -4.578125 7.898438 -4.390625 9.265625 -4.390625 C 10.671875 -4.390625 11.71875 -4.566406 12.40625 -4.921875 C 13.101562 -5.285156 13.453125 -5.800781 13.453125 -6.46875 C 13.453125 -7 13.144531 -7.382812 12.53125 -7.625 C 11.925781 -7.863281 10.941406 -8.117188 9.578125 -8.390625 C 8.035156 -8.679688 6.765625 -9 5.765625 -9.34375 C 4.765625 -9.6875 3.898438 -10.25 3.171875 -11.03125 C 2.441406 -11.820312 2.078125 -12.894531 2.078125 -14.25 C 2.078125 -16.625 3.066406 -18.472656 5.046875 -19.796875 C 7.035156 -21.128906 9.640625 -21.796875 12.859375 -21.796875 C 14.347656 -21.796875 15.796875 -21.632812 17.203125 -21.3125 C 18.617188 -21 19.816406 -20.5625 20.796875 -20 L 18.5625 -15.453125 C 16.800781 -16.546875 14.6875 -17.09375 12.21875 -17.09375 C 10.863281 -17.09375 9.832031 -16.890625 9.125 -16.484375 C 8.414062 -16.085938 8.0625 -15.582031 8.0625 -14.96875 C 8.0625 -14.40625 8.367188 -14 8.984375 -13.75 C 9.597656 -13.5 10.625 -13.226562 12.0625 -12.9375 C 13.570312 -12.644531 14.8125 -12.332031 15.78125 -12 C 16.757812 -11.664062 17.609375 -11.113281 18.328125 -10.34375 C 19.046875 -9.570312 19.40625 -8.519531 19.40625 -7.1875 C 19.40625 -4.789062 18.398438 -2.941406 16.390625 -1.640625 C 14.378906 -0.335938 11.773438 0.3125 8.578125 0.3125 Z M 8.578125 0.3125 "/></g></g></g><g fill="#000000" fill-opacity="1"><g transform="translate(353.158693, 253.036554)"><g/></g></g><g fill="#000000" fill-opacity="1"><g transform="translate(364.456045, 253.036554)"><g><path d="M 5.03125 -21.484375 L 11.21875 -21.484375 L 6.953125 0 L 0.765625 0 Z M 9.1875 -24.46875 C 8.125 -24.46875 7.25 -24.78125 6.5625 -25.40625 C 5.882812 -26.03125 5.546875 -26.796875 5.546875 -27.703125 C 5.546875 -28.765625 5.925781 -29.648438 6.6875 -30.359375 C 7.445312 -31.066406 8.441406 -31.421875 9.671875 -31.421875 C 10.753906 -31.421875 11.632812 -31.117188 12.3125 -30.515625 C 13 -29.921875 13.34375 -29.179688 13.34375 -28.296875 C 13.34375 -27.160156 12.953125 -26.238281 12.171875 -25.53125 C 11.398438 -24.820312 10.40625 -24.46875 9.1875 -24.46875 Z M 9.1875 -24.46875 "/></g></g></g><g fill="#000000" fill-opacity="1"><g transform="translate(376.432043, 253.036554)"><g><path d="M 8.578125 0.3125 C 6.710938 0.3125 4.945312 0.109375 3.28125 -0.296875 C 1.625 -0.710938 0.332031 -1.253906 -0.59375 -1.921875 L 1.796875 -6.421875 C 2.722656 -5.816406 3.859375 -5.328125 5.203125 -4.953125 C 6.546875 -4.578125 7.898438 -4.390625 9.265625 -4.390625 C 10.671875 -4.390625 11.71875 -4.566406 12.40625 -4.921875 C 13.101562 -5.285156 13.453125 -5.800781 13.453125 -6.46875 C 13.453125 -7 13.144531 -7.382812 12.53125 -7.625 C 11.925781 -7.863281 10.941406 -8.117188 9.578125 -8.390625 C 8.035156 -8.679688 6.765625 -9 5.765625 -9.34375 C 4.765625 -9.6875 3.898438 -10.25 3.171875 -11.03125 C 2.441406 -11.820312 2.078125 -12.894531 2.078125 -14.25 C 2.078125 -16.625 3.066406 -18.472656 5.046875 -19.796875 C 7.035156 -21.128906 9.640625 -21.796875 12.859375 -21.796875 C 14.347656 -21.796875 15.796875 -21.632812 17.203125 -21.3125 C 18.617188 -21 19.816406 -20.5625 20.796875 -20 L 18.5625 -15.453125 C 16.800781 -16.546875 14.6875 -17.09375 12.21875 -17.09375 C 10.863281 -17.09375 9.832031 -16.890625 9.125 -16.484375 C 8.414062 -16.085938 8.0625 -15.582031 8.0625 -14.96875 C 8.0625 -14.40625 8.367188 -14 8.984375 -13.75 C 9.597656 -13.5 10.625 -13.226562 12.0625 -12.9375 C 13.570312 -12.644531 14.8125 -12.332031 15.78125 -12 C 16.757812 -11.664062 17.609375 -11.113281 18.328125 -10.34375 C 19.046875 -9.570312 19.40625 -8.519531 19.40625 -7.1875 C 19.40625 -4.789062 18.398438 -2.941406 16.390625 -1.640625 C 14.378906 -0.335938 11.773438 0.3125 8.578125 0.3125 Z M 8.578125 0.3125 "/></g></g></g><g fill="#000000" fill-opacity="1"><g transform="translate(397.629554, 253.036554)"><g/></g></g><g fill="#000000" fill-opacity="1"><g transform="translate(408.926906, 253.036554)"><g><path d="M 17.53125 -21.796875 C 19.925781 -21.796875 21.828125 -21.160156 23.234375 -19.890625 C 24.640625 -18.628906 25.34375 -16.828125 25.34375 -14.484375 C 25.34375 -13.609375 25.253906 -12.742188 25.078125 -11.890625 L 22.671875 0 L 16.453125 0 L 18.765625 -11.5 C 18.867188 -11.945312 18.921875 -12.4375 18.921875 -12.96875 C 18.921875 -14.09375 18.613281 -14.945312 18 -15.53125 C 17.394531 -16.113281 16.476562 -16.40625 15.25 -16.40625 C 13.65625 -16.40625 12.332031 -15.945312 11.28125 -15.03125 C 10.226562 -14.113281 9.515625 -12.738281 9.140625 -10.90625 L 6.984375 0 L 0.765625 0 L 5.03125 -21.484375 L 10.9375 -21.484375 L 10.453125 -19.15625 C 12.367188 -20.914062 14.726562 -21.796875 17.53125 -21.796875 Z M 17.53125 -21.796875 "/></g></g></g><g fill="#000000" fill-opacity="1"><g transform="translate(436.511615, 253.036554)"><g><path d="M 11.96875 0.3125 C 9.820312 0.3125 7.925781 -0.0820312 6.28125 -0.875 C 4.644531 -1.675781 3.378906 -2.800781 2.484375 -4.25 C 1.597656 -5.695312 1.15625 -7.378906 1.15625 -9.296875 C 1.15625 -11.671875 1.710938 -13.800781 2.828125 -15.6875 C 3.953125 -17.582031 5.5 -19.070312 7.46875 -20.15625 C 9.4375 -21.25 11.65625 -21.796875 14.125 -21.796875 C 16.3125 -21.796875 18.21875 -21.394531 19.84375 -20.59375 C 21.46875 -19.800781 22.722656 -18.675781 23.609375 -17.21875 C 24.503906 -15.769531 24.953125 -14.085938 24.953125 -12.171875 C 24.953125 -9.804688 24.398438 -7.675781 23.296875 -5.78125 C 22.191406 -3.894531 20.644531 -2.40625 18.65625 -1.3125 C 16.675781 -0.226562 14.445312 0.3125 11.96875 0.3125 Z M 12.375 -4.828125 C 13.570312 -4.828125 14.648438 -5.125 15.609375 -5.71875 C 16.566406 -6.320312 17.3125 -7.15625 17.84375 -8.21875 C 18.375 -9.289062 18.640625 -10.515625 18.640625 -11.890625 C 18.640625 -13.359375 18.210938 -14.515625 17.359375 -15.359375 C 16.515625 -16.210938 15.316406 -16.640625 13.765625 -16.640625 C 12.546875 -16.640625 11.457031 -16.335938 10.5 -15.734375 C 9.539062 -15.140625 8.796875 -14.3125 8.265625 -13.25 C 7.734375 -12.1875 7.46875 -10.960938 7.46875 -9.578125 C 7.46875 -8.117188 7.898438 -6.960938 8.765625 -6.109375 C 9.628906 -5.253906 10.832031 -4.828125 12.375 -4.828125 Z M 12.375 -4.828125 "/></g></g></g><g fill="#000000" fill-opacity="1"><g transform="translate(462.619302, 253.036554)"><g><path d="M 9.21875 -7.578125 C 9.164062 -7.367188 9.140625 -7.078125 9.140625 -6.703125 C 9.140625 -5.316406 9.898438 -4.625 11.421875 -4.625 C 12.242188 -4.625 13.082031 -4.878906 13.9375 -5.390625 L 14.84375 -0.953125 C 13.46875 -0.109375 11.6875 0.3125 9.5 0.3125 C 7.476562 0.3125 5.851562 -0.21875 4.625 -1.28125 C 3.40625 -2.34375 2.796875 -3.804688 2.796875 -5.671875 C 2.796875 -6.203125 2.863281 -6.828125 3 -7.546875 L 4.703125 -16.203125 L 1.390625 -16.203125 L 2.359375 -21 L 5.671875 -21 L 6.703125 -26.234375 L 12.9375 -26.234375 L 11.890625 -21 L 17.25 -21 L 16.28125 -16.203125 L 10.9375 -16.203125 Z M 9.21875 -7.578125 "/></g></g></g><g fill="#000000" fill-opacity="1"><g transform="translate(479.984495, 253.036554)"><g/></g></g><g fill="#000000" fill-opacity="1"><g transform="translate(491.281846, 253.036554)"><g><path d="M 9.21875 -7.578125 C 9.164062 -7.367188 9.140625 -7.078125 9.140625 -6.703125 C 9.140625 -5.316406 9.898438 -4.625 11.421875 -4.625 C 12.242188 -4.625 13.082031 -4.878906 13.9375 -5.390625 L 14.84375 -0.953125 C 13.46875 -0.109375 11.6875 0.3125 9.5 0.3125 C 7.476562 0.3125 5.851562 -0.21875 4.625 -1.28125 C 3.40625 -2.34375 2.796875 -3.804688 2.796875 -5.671875 C 2.796875 -6.203125 2.863281 -6.828125 3 -7.546875 L 4.703125 -16.203125 L 1.390625 -16.203125 L 2.359375 -21 L 5.671875 -21 L 6.703125 -26.234375 L 12.9375 -26.234375 L 11.890625 -21 L 17.25 -21 L 16.28125 -16.203125 L 10.9375 -16.203125 Z M 9.21875 -7.578125 "/></g></g></g><g fill="#000000" fill-opacity="1"><g transform="translate(508.647039, 253.036554)"><g><path d="M 17.53125 -21.796875 C 19.925781 -21.796875 21.828125 -21.15625 23.234375 -19.875 C 24.640625 -18.601562 25.34375 -16.796875 25.34375 -14.453125 C 25.34375 -13.597656 25.253906 -12.742188 25.078125 -11.890625 L 22.671875 0 L 16.453125 0 L 18.765625 -11.5 C 18.867188 -11.945312 18.921875 -12.4375 18.921875 -12.96875 C 18.921875 -14.09375 18.613281 -14.945312 18 -15.53125 C 17.394531 -16.113281 16.476562 -16.40625 15.25 -16.40625 C 13.65625 -16.40625 12.332031 -15.945312 11.28125 -15.03125 C 10.226562 -14.113281 9.515625 -12.738281 9.140625 -10.90625 L 6.984375 0 L 0.765625 0 L 6.671875 -29.625 L 12.890625 -29.625 L 10.90625 -19.515625 C 12.738281 -21.035156 14.945312 -21.796875 17.53125 -21.796875 Z M 17.53125 -21.796875 "/></g></g></g><g fill="#000000" fill-opacity="1"><g transform="translate(536.231749, 253.036554)"><g><path d="M 24.078125 -12.328125 C 24.078125 -11.347656 23.957031 -10.257812 23.71875 -9.0625 L 7.265625 -9.0625 C 7.472656 -6.132812 9.320312 -4.671875 12.8125 -4.671875 C 13.90625 -4.671875 14.953125 -4.84375 15.953125 -5.1875 C 16.953125 -5.53125 17.820312 -6.023438 18.5625 -6.671875 L 21.15625 -2.5625 C 19.957031 -1.601562 18.585938 -0.882812 17.046875 -0.40625 C 15.503906 0.0703125 13.878906 0.3125 12.171875 0.3125 C 9.960938 0.3125 8.023438 -0.078125 6.359375 -0.859375 C 4.703125 -1.640625 3.425781 -2.757812 2.53125 -4.21875 C 1.644531 -5.6875 1.203125 -7.378906 1.203125 -9.296875 C 1.203125 -11.671875 1.738281 -13.804688 2.8125 -15.703125 C 3.894531 -17.609375 5.394531 -19.097656 7.3125 -20.171875 C 9.226562 -21.253906 11.410156 -21.796875 13.859375 -21.796875 C 15.929688 -21.796875 17.734375 -21.410156 19.265625 -20.640625 C 20.796875 -19.867188 21.976562 -18.765625 22.8125 -17.328125 C 23.65625 -15.890625 24.078125 -14.222656 24.078125 -12.328125 Z M 13.578125 -17.125 C 12.109375 -17.125 10.867188 -16.726562 9.859375 -15.9375 C 8.847656 -15.15625 8.128906 -14.070312 7.703125 -12.6875 L 18.359375 -12.6875 C 18.359375 -14.070312 17.925781 -15.15625 17.0625 -15.9375 C 16.195312 -16.726562 15.035156 -17.125 13.578125 -17.125 Z M 13.578125 -17.125 "/></g></g></g><g fill="#000000" fill-opacity="1"><g transform="translate(267.729922, 309.179614)"><g><path d="M 39.796875 -21.484375 L 27.9375 0 L 21.796875 0 L 19.328125 -13.375 L 11.9375 0 L 5.875 0 L 2.078125 -21.484375 L 7.75 -21.484375 L 10.09375 -7.03125 L 18.171875 -21.484375 L 23.515625 -21.484375 L 25.953125 -7.03125 L 33.9375 -21.484375 Z M 39.796875 -21.484375 "/></g></g></g><g fill="#000000" fill-opacity="1"><g transform="translate(305.294634, 309.179614)"><g><path d="M 24.078125 -12.328125 C 24.078125 -11.347656 23.957031 -10.257812 23.71875 -9.0625 L 7.265625 -9.0625 C 7.472656 -6.132812 9.320312 -4.671875 12.8125 -4.671875 C 13.90625 -4.671875 14.953125 -4.84375 15.953125 -5.1875 C 16.953125 -5.53125 17.820312 -6.023438 18.5625 -6.671875 L 21.15625 -2.5625 C 19.957031 -1.601562 18.585938 -0.882812 17.046875 -0.40625 C 15.503906 0.0703125 13.878906 0.3125 12.171875 0.3125 C 9.960938 0.3125 8.023438 -0.078125 6.359375 -0.859375 C 4.703125 -1.640625 3.425781 -2.757812 2.53125 -4.21875 C 1.644531 -5.6875 1.203125 -7.378906 1.203125 -9.296875 C 1.203125 -11.671875 1.738281 -13.804688 2.8125 -15.703125 C 3.894531 -17.609375 5.394531 -19.097656 7.3125 -20.171875 C 9.226562 -21.253906 11.410156 -21.796875 13.859375 -21.796875 C 15.929688 -21.796875 17.734375 -21.410156 19.265625 -20.640625 C 20.796875 -19.867188 21.976562 -18.765625 22.8125 -17.328125 C 23.65625 -15.890625 24.078125 -14.222656 24.078125 -12.328125 Z M 13.578125 -17.125 C 12.109375 -17.125 10.867188 -16.726562 9.859375 -15.9375 C 8.847656 -15.15625 8.128906 -14.070312 7.703125 -12.6875 L 18.359375 -12.6875 C 18.359375 -14.070312 17.925781 -15.15625 17.0625 -15.9375 C 16.195312 -16.726562 15.035156 -17.125 13.578125 -17.125 Z M 13.578125 -17.125 "/></g></g></g><g fill="#000000" fill-opacity="1"><g transform="translate(330.364385, 309.179614)"><g><path d="M 17.09375 -21.796875 C 18.769531 -21.796875 20.316406 -21.410156 21.734375 -20.640625 C 23.160156 -19.867188 24.289062 -18.753906 25.125 -17.296875 C 25.96875 -15.847656 26.390625 -14.140625 26.390625 -12.171875 C 26.390625 -9.804688 25.863281 -7.671875 24.8125 -5.765625 C 23.757812 -3.867188 22.328125 -2.378906 20.515625 -1.296875 C 18.710938 -0.222656 16.703125 0.3125 14.484375 0.3125 C 12.804688 0.3125 11.351562 0.0195312 10.125 -0.5625 C 8.90625 -1.144531 7.96875 -2.019531 7.3125 -3.1875 L 6.671875 0 L 0.765625 0 L 6.671875 -29.625 L 12.890625 -29.625 L 10.90625 -19.640625 C 12.632812 -21.078125 14.695312 -21.796875 17.09375 -21.796875 Z M 13.765625 -4.828125 C 14.992188 -4.828125 16.085938 -5.125 17.046875 -5.71875 C 18.003906 -6.320312 18.75 -7.15625 19.28125 -8.21875 C 19.8125 -9.289062 20.078125 -10.515625 20.078125 -11.890625 C 20.078125 -13.359375 19.644531 -14.515625 18.78125 -15.359375 C 17.914062 -16.210938 16.710938 -16.640625 15.171875 -16.640625 C 13.972656 -16.640625 12.894531 -16.335938 11.9375 -15.734375 C 10.976562 -15.140625 10.234375 -14.3125 9.703125 -13.25 C 9.171875 -12.1875 8.90625 -10.960938 8.90625 -9.578125 C 8.90625 -8.117188 9.328125 -6.960938 10.171875 -6.109375 C 11.023438 -5.253906 12.222656 -4.828125 13.765625 -4.828125 Z M 13.765625 -4.828125 "/></g></g></g><g fill="#000000" fill-opacity="1"><g transform="translate(357.909174, 309.179614)"><g/></g></g><g fill="#000000" fill-opacity="1"><g transform="translate(369.206525, 309.179614)"><g><path d="M 17.09375 -21.796875 C 18.769531 -21.796875 20.316406 -21.410156 21.734375 -20.640625 C 23.160156 -19.867188 24.289062 -18.753906 25.125 -17.296875 C 25.96875 -15.847656 26.390625 -14.140625 26.390625 -12.171875 C 26.390625 -9.804688 25.863281 -7.671875 24.8125 -5.765625 C 23.757812 -3.867188 22.328125 -2.378906 20.515625 -1.296875 C 18.710938 -0.222656 16.703125 0.3125 14.484375 0.3125 C 11.210938 0.3125 8.898438 -0.75 7.546875 -2.875 L 5.421875 7.75 L -0.796875 7.75 L 5.03125 -21.484375 L 10.9375 -21.484375 L 10.5 -19.359375 C 12.28125 -20.984375 14.476562 -21.796875 17.09375 -21.796875 Z M 13.765625 -4.828125 C 14.992188 -4.828125 16.085938 -5.125 17.046875 -5.71875 C 18.003906 -6.320312 18.75 -7.15625 19.28125 -8.21875 C 19.8125 -9.289062 20.078125 -10.515625 20.078125 -11.890625 C 20.078125 -13.359375 19.644531 -14.515625 18.78125 -15.359375 C 17.914062 -16.210938 16.710938 -16.640625 15.171875 -16.640625 C 13.972656 -16.640625 12.894531 -16.335938 11.9375 -15.734375 C 10.976562 -15.140625 10.234375 -14.3125 9.703125 -13.25 C 9.171875 -12.1875 8.90625 -10.960938 8.90625 -9.578125 C 8.90625 -8.117188 9.328125 -6.960938 10.171875 -6.109375 C 11.023438 -5.253906 12.222656 -4.828125 13.765625 -4.828125 Z M 13.765625 -4.828125 "/></g></g></g><g fill="#000000" fill-opacity="1"><g transform="translate(396.751314, 309.179614)"><g><path d="M 26.828125 -21.484375 L 22.5625 0 L 16.640625 0 L 17.046875 -2.109375 C 15.265625 -0.492188 13.066406 0.3125 10.453125 0.3125 C 8.773438 0.3125 7.234375 -0.0703125 5.828125 -0.84375 C 4.421875 -1.613281 3.296875 -2.722656 2.453125 -4.171875 C 1.617188 -5.617188 1.203125 -7.328125 1.203125 -9.296875 C 1.203125 -11.671875 1.722656 -13.804688 2.765625 -15.703125 C 3.816406 -17.609375 5.25 -19.097656 7.0625 -20.171875 C 8.875 -21.253906 10.867188 -21.796875 13.046875 -21.796875 C 16.347656 -21.796875 18.679688 -20.71875 20.046875 -18.5625 L 20.59375 -21.484375 Z M 12.375 -4.828125 C 13.601562 -4.828125 14.695312 -5.125 15.65625 -5.71875 C 16.613281 -6.320312 17.359375 -7.15625 17.890625 -8.21875 C 18.421875 -9.289062 18.6875 -10.515625 18.6875 -11.890625 C 18.6875 -13.359375 18.253906 -14.515625 17.390625 -15.359375 C 16.523438 -16.210938 15.316406 -16.640625 13.765625 -16.640625 C 12.546875 -16.640625 11.457031 -16.335938 10.5 -15.734375 C 9.539062 -15.140625 8.796875 -14.3125 8.265625 -13.25 C 7.734375 -12.1875 7.46875 -10.960938 7.46875 -9.578125 C 7.46875 -8.117188 7.898438 -6.960938 8.765625 -6.109375 C 9.628906 -5.253906 10.832031 -4.828125 12.375 -4.828125 Z M 12.375 -4.828125 "/></g></g></g><g fill="#000000" fill-opacity="1"><g transform="translate(424.296103, 309.179614)"><g><path d="M 27.1875 -21.484375 L 23.640625 -3.59375 C 22.835938 0.445312 21.296875 3.398438 19.015625 5.265625 C 16.742188 7.128906 13.707031 8.0625 9.90625 8.0625 C 7.820312 8.0625 5.910156 7.820312 4.171875 7.34375 C 2.429688 6.863281 0.9375 6.160156 -0.3125 5.234375 L 2.640625 0.71875 C 3.484375 1.4375 4.578125 2 5.921875 2.40625 C 7.265625 2.820312 8.6875 3.03125 10.1875 3.03125 C 12.28125 3.03125 13.875 2.570312 14.96875 1.65625 C 16.0625 0.738281 16.804688 -0.648438 17.203125 -2.515625 L 17.359375 -3.4375 C 15.628906 -1.832031 13.445312 -1.03125 10.8125 -1.03125 C 9.03125 -1.03125 7.421875 -1.394531 5.984375 -2.125 C 4.546875 -2.863281 3.40625 -3.910156 2.5625 -5.265625 C 1.726562 -6.628906 1.3125 -8.226562 1.3125 -10.0625 C 1.3125 -12.238281 1.832031 -14.21875 2.875 -16 C 3.914062 -17.789062 5.347656 -19.203125 7.171875 -20.234375 C 8.992188 -21.273438 11.035156 -21.796875 13.296875 -21.796875 C 14.972656 -21.796875 16.441406 -21.484375 17.703125 -20.859375 C 18.972656 -20.234375 19.925781 -19.269531 20.5625 -17.96875 L 21.234375 -21.484375 Z M 12.5 -6.140625 C 14.300781 -6.140625 15.785156 -6.722656 16.953125 -7.890625 C 18.128906 -9.066406 18.71875 -10.578125 18.71875 -12.421875 C 18.71875 -13.722656 18.289062 -14.75 17.4375 -15.5 C 16.59375 -16.257812 15.410156 -16.640625 13.890625 -16.640625 C 12.054688 -16.640625 10.546875 -16.054688 9.359375 -14.890625 C 8.171875 -13.722656 7.578125 -12.21875 7.578125 -10.375 C 7.578125 -9.070312 8.015625 -8.039062 8.890625 -7.28125 C 9.773438 -6.519531 10.976562 -6.140625 12.5 -6.140625 Z M 12.5 -6.140625 "/></g></g></g><g fill="#000000" fill-opacity="1"><g transform="translate(452.24009, 309.179614)"><g><path d="M 24.078125 -12.328125 C 24.078125 -11.347656 23.957031 -10.257812 23.71875 -9.0625 L 7.265625 -9.0625 C 7.472656 -6.132812 9.320312 -4.671875 12.8125 -4.671875 C 13.90625 -4.671875 14.953125 -4.84375 15.953125 -5.1875 C 16.953125 -5.53125 17.820312 -6.023438 18.5625 -6.671875 L 21.15625 -2.5625 C 19.957031 -1.601562 18.585938 -0.882812 17.046875 -0.40625 C 15.503906 0.0703125 13.878906 0.3125 12.171875 0.3125 C 9.960938 0.3125 8.023438 -0.078125 6.359375 -0.859375 C 4.703125 -1.640625 3.425781 -2.757812 2.53125 -4.21875 C 1.644531 -5.6875 1.203125 -7.378906 1.203125 -9.296875 C 1.203125 -11.671875 1.738281 -13.804688 2.8125 -15.703125 C 3.894531 -17.609375 5.394531 -19.097656 7.3125 -20.171875 C 9.226562 -21.253906 11.410156 -21.796875 13.859375 -21.796875 C 15.929688 -21.796875 17.734375 -21.410156 19.265625 -20.640625 C 20.796875 -19.867188 21.976562 -18.765625 22.8125 -17.328125 C 23.65625 -15.890625 24.078125 -14.222656 24.078125 -12.328125 Z M 13.578125 -17.125 C 12.109375 -17.125 10.867188 -16.726562 9.859375 -15.9375 C 8.847656 -15.15625 8.128906 -14.070312 7.703125 -12.6875 L 18.359375 -12.6875 C 18.359375 -14.070312 17.925781 -15.15625 17.0625 -15.9375 C 16.195312 -16.726562 15.035156 -17.125 13.578125 -17.125 Z M 13.578125 -17.125 "/></g></g></g><g fill="#000000" fill-opacity="1"><g transform="translate(477.309841, 309.179614)"><g/></g></g><g fill="#000000" fill-opacity="1"><g transform="translate(488.607193, 309.179614)"><g><path d="M 26.34375 -21.484375 L 12.0625 1.4375 C 10.507812 3.9375 9.007812 5.664062 7.5625 6.625 C 6.113281 7.582031 4.335938 8.0625 2.234375 8.0625 C 1.117188 8.0625 0.0234375 7.890625 -1.046875 7.546875 C -2.128906 7.203125 -2.976562 6.75 -3.59375 6.1875 L -0.71875 1.71875 C 0.238281 2.59375 1.382812 3.03125 2.71875 3.03125 C 3.507812 3.03125 4.195312 2.832031 4.78125 2.4375 C 5.375 2.039062 5.976562 1.363281 6.59375 0.40625 L 6.78125 0.046875 L 1.84375 -21.484375 L 8.0625 -21.484375 L 11.265625 -6.859375 L 20.203125 -21.484375 Z M 26.34375 -21.484375 "/></g></g></g><g fill="#000000" fill-opacity="1"><g transform="translate(512.479347, 309.179614)"><g><path d="M 11.96875 0.3125 C 9.820312 0.3125 7.925781 -0.0820312 6.28125 -0.875 C 4.644531 -1.675781 3.378906 -2.800781 2.484375 -4.25 C 1.597656 -5.695312 1.15625 -7.378906 1.15625 -9.296875 C 1.15625 -11.671875 1.710938 -13.800781 2.828125 -15.6875 C 3.953125 -17.582031 5.5 -19.070312 7.46875 -20.15625 C 9.4375 -21.25 11.65625 -21.796875 14.125 -21.796875 C 16.3125 -21.796875 18.21875 -21.394531 19.84375 -20.59375 C 21.46875 -19.800781 22.722656 -18.675781 23.609375 -17.21875 C 24.503906 -15.769531 24.953125 -14.085938 24.953125 -12.171875 C 24.953125 -9.804688 24.398438 -7.675781 23.296875 -5.78125 C 22.191406 -3.894531 20.644531 -2.40625 18.65625 -1.3125 C 16.675781 -0.226562 14.445312 0.3125 11.96875 0.3125 Z M 12.375 -4.828125 C 13.570312 -4.828125 14.648438 -5.125 15.609375 -5.71875 C 16.566406 -6.320312 17.3125 -7.15625 17.84375 -8.21875 C 18.375 -9.289062 18.640625 -10.515625 18.640625 -11.890625 C 18.640625 -13.359375 18.210938 -14.515625 17.359375 -15.359375 C 16.515625 -16.210938 15.316406 -16.640625 13.765625 -16.640625 C 12.546875 -16.640625 11.457031 -16.335938 10.5 -15.734375 C 9.539062 -15.140625 8.796875 -14.3125 8.265625 -13.25 C 7.734375 -12.1875 7.46875 -10.960938 7.46875 -9.578125 C 7.46875 -8.117188 7.898438 -6.960938 8.765625 -6.109375 C 9.628906 -5.253906 10.832031 -4.828125 12.375 -4.828125 Z M 12.375 -4.828125 "/></g></g></g><g fill="#000000" fill-opacity="1"><g transform="translate(538.587012, 309.179614)"><g><path d="M 26.671875 -21.484375 L 22.390625 0 L 16.484375 0 L 16.921875 -2.3125 C 15.992188 -1.4375 14.929688 -0.78125 13.734375 -0.34375 C 12.535156 0.09375 11.269531 0.3125 9.9375 0.3125 C 7.59375 0.3125 5.722656 -0.320312 4.328125 -1.59375 C 2.929688 -2.875 2.234375 -4.671875 2.234375 -6.984375 C 2.234375 -7.859375 2.328125 -8.722656 2.515625 -9.578125 L 4.875 -21.484375 L 11.09375 -21.484375 L 8.828125 -9.984375 C 8.710938 -9.472656 8.65625 -8.953125 8.65625 -8.421875 C 8.65625 -6.179688 9.851562 -5.0625 12.25 -5.0625 C 13.820312 -5.0625 15.117188 -5.519531 16.140625 -6.4375 C 17.171875 -7.363281 17.875 -8.742188 18.25 -10.578125 L 20.4375 -21.484375 Z M 26.671875 -21.484375 "/></g></g></g><g fill="#000000" fill-opacity="1"><g transform="translate(267.729922, 365.322673)"><g><path d="M 39.796875 -21.484375 L 27.9375 0 L 21.796875 0 L 19.328125 -13.375 L 11.9375 0 L 5.875 0 L 2.078125 -21.484375 L 7.75 -21.484375 L 10.09375 -7.03125 L 18.171875 -21.484375 L 23.515625 -21.484375 L 25.953125 -7.03125 L 33.9375 -21.484375 Z M 39.796875 -21.484375 "/></g></g></g><g fill="#000000" fill-opacity="1"><g transform="translate(305.294634, 365.322673)"><g><path d="M 24.078125 -12.328125 C 24.078125 -11.347656 23.957031 -10.257812 23.71875 -9.0625 L 7.265625 -9.0625 C 7.472656 -6.132812 9.320312 -4.671875 12.8125 -4.671875 C 13.90625 -4.671875 14.953125 -4.84375 15.953125 -5.1875 C 16.953125 -5.53125 17.820312 -6.023438 18.5625 -6.671875 L 21.15625 -2.5625 C 19.957031 -1.601562 18.585938 -0.882812 17.046875 -0.40625 C 15.503906 0.0703125 13.878906 0.3125 12.171875 0.3125 C 9.960938 0.3125 8.023438 -0.078125 6.359375 -0.859375 C 4.703125 -1.640625 3.425781 -2.757812 2.53125 -4.21875 C 1.644531 -5.6875 1.203125 -7.378906 1.203125 -9.296875 C 1.203125 -11.671875 1.738281 -13.804688 2.8125 -15.703125 C 3.894531 -17.609375 5.394531 -19.097656 7.3125 -20.171875 C 9.226562 -21.253906 11.410156 -21.796875 13.859375 -21.796875 C 15.929688 -21.796875 17.734375 -21.410156 19.265625 -20.640625 C 20.796875 -19.867188 21.976562 -18.765625 22.8125 -17.328125 C 23.65625 -15.890625 24.078125 -14.222656 24.078125 -12.328125 Z M 13.578125 -17.125 C 12.109375 -17.125 10.867188 -16.726562 9.859375 -15.9375 C 8.847656 -15.15625 8.128906 -14.070312 7.703125 -12.6875 L 18.359375 -12.6875 C 18.359375 -14.070312 17.925781 -15.15625 17.0625 -15.9375 C 16.195312 -16.726562 15.035156 -17.125 13.578125 -17.125 Z M 13.578125 -17.125 "/></g></g></g><g fill="#000000" fill-opacity="1"><g transform="translate(330.364385, 365.322673)"><g><path d="M 10.421875 -18.921875 C 11.347656 -19.929688 12.46875 -20.660156 13.78125 -21.109375 C 15.101562 -21.566406 16.65625 -21.796875 18.4375 -21.796875 L 17.328125 -16.046875 C 16.578125 -16.097656 16.097656 -16.125 15.890625 -16.125 C 13.992188 -16.125 12.476562 -15.65625 11.34375 -14.71875 C 10.21875 -13.789062 9.457031 -12.34375 9.0625 -10.375 L 6.984375 0 L 0.765625 0 L 5.03125 -21.484375 L 10.9375 -21.484375 Z M 10.421875 -18.921875 "/></g></g></g><g fill="#000000" fill-opacity="1"><g transform="translate(347.569905, 365.322673)"><g><path d="M 24.078125 -12.328125 C 24.078125 -11.347656 23.957031 -10.257812 23.71875 -9.0625 L 7.265625 -9.0625 C 7.472656 -6.132812 9.320312 -4.671875 12.8125 -4.671875 C 13.90625 -4.671875 14.953125 -4.84375 15.953125 -5.1875 C 16.953125 -5.53125 17.820312 -6.023438 18.5625 -6.671875 L 21.15625 -2.5625 C 19.957031 -1.601562 18.585938 -0.882812 17.046875 -0.40625 C 15.503906 0.0703125 13.878906 0.3125 12.171875 0.3125 C 9.960938 0.3125 8.023438 -0.078125 6.359375 -0.859375 C 4.703125 -1.640625 3.425781 -2.757812 2.53125 -4.21875 C 1.644531 -5.6875 1.203125 -7.378906 1.203125 -9.296875 C 1.203125 -11.671875 1.738281 -13.804688 2.8125 -15.703125 C 3.894531 -17.609375 5.394531 -19.097656 7.3125 -20.171875 C 9.226562 -21.253906 11.410156 -21.796875 13.859375 -21.796875 C 15.929688 -21.796875 17.734375 -21.410156 19.265625 -20.640625 C 20.796875 -19.867188 21.976562 -18.765625 22.8125 -17.328125 C 23.65625 -15.890625 24.078125 -14.222656 24.078125 -12.328125 Z M 13.578125 -17.125 C 12.109375 -17.125 10.867188 -16.726562 9.859375 -15.9375 C 8.847656 -15.15625 8.128906 -14.070312 7.703125 -12.6875 L 18.359375 -12.6875 C 18.359375 -14.070312 17.925781 -15.15625 17.0625 -15.9375 C 16.195312 -16.726562 15.035156 -17.125 13.578125 -17.125 Z M 13.578125 -17.125 "/></g></g></g><g fill="#000000" fill-opacity="1"><g transform="translate(372.639656, 365.322673)"><g/></g></g><g fill="#000000" fill-opacity="1"><g transform="translate(383.937007, 365.322673)"><g><path d="M 6.671875 -29.625 L 12.890625 -29.625 L 6.984375 0 L 0.765625 0 Z M 6.671875 -29.625 "/></g></g></g><g fill="#000000" fill-opacity="1"><g transform="translate(395.952926, 365.322673)"><g><path d="M 11.96875 0.3125 C 9.820312 0.3125 7.925781 -0.0820312 6.28125 -0.875 C 4.644531 -1.675781 3.378906 -2.800781 2.484375 -4.25 C 1.597656 -5.695312 1.15625 -7.378906 1.15625 -9.296875 C 1.15625 -11.671875 1.710938 -13.800781 2.828125 -15.6875 C 3.953125 -17.582031 5.5 -19.070312 7.46875 -20.15625 C 9.4375 -21.25 11.65625 -21.796875 14.125 -21.796875 C 16.3125 -21.796875 18.21875 -21.394531 19.84375 -20.59375 C 21.46875 -19.800781 22.722656 -18.675781 23.609375 -17.21875 C 24.503906 -15.769531 24.953125 -14.085938 24.953125 -12.171875 C 24.953125 -9.804688 24.398438 -7.675781 23.296875 -5.78125 C 22.191406 -3.894531 20.644531 -2.40625 18.65625 -1.3125 C 16.675781 -0.226562 14.445312 0.3125 11.96875 0.3125 Z M 12.375 -4.828125 C 13.570312 -4.828125 14.648438 -5.125 15.609375 -5.71875 C 16.566406 -6.320312 17.3125 -7.15625 17.84375 -8.21875 C 18.375 -9.289062 18.640625 -10.515625 18.640625 -11.890625 C 18.640625 -13.359375 18.210938 -14.515625 17.359375 -15.359375 C 16.515625 -16.210938 15.316406 -16.640625 13.765625 -16.640625 C 12.546875 -16.640625 11.457031 -16.335938 10.5 -15.734375 C 9.539062 -15.140625 8.796875 -14.3125 8.265625 -13.25 C 7.734375 -12.1875 7.46875 -10.960938 7.46875 -9.578125 C 7.46875 -8.117188 7.898438 -6.960938 8.765625 -6.109375 C 9.628906 -5.253906 10.832031 -4.828125 12.375 -4.828125 Z M 12.375 -4.828125 "/></g></g></g><g fill="#000000" fill-opacity="1"><g transform="translate(422.060603, 365.322673)"><g><path d="M 11.96875 0.3125 C 9.820312 0.3125 7.925781 -0.0820312 6.28125 -0.875 C 4.644531 -1.675781 3.378906 -2.800781 2.484375 -4.25 C 1.597656 -5.695312 1.15625 -7.378906 1.15625 -9.296875 C 1.15625 -11.671875 1.710938 -13.800781 2.828125 -15.6875 C 3.953125 -17.582031 5.5 -19.070312 7.46875 -20.15625 C 9.4375 -21.25 11.65625 -21.796875 14.125 -21.796875 C 16.3125 -21.796875 18.21875 -21.394531 19.84375 -20.59375 C 21.46875 -19.800781 22.722656 -18.675781 23.609375 -17.21875 C 24.503906 -15.769531 24.953125 -14.085938 24.953125 -12.171875 C 24.953125 -9.804688 24.398438 -7.675781 23.296875 -5.78125 C 22.191406 -3.894531 20.644531 -2.40625 18.65625 -1.3125 C 16.675781 -0.226562 14.445312 0.3125 11.96875 0.3125 Z M 12.375 -4.828125 C 13.570312 -4.828125 14.648438 -5.125 15.609375 -5.71875 C 16.566406 -6.320312 17.3125 -7.15625 17.84375 -8.21875 C 18.375 -9.289062 18.640625 -10.515625 18.640625 -11.890625 C 18.640625 -13.359375 18.210938 -14.515625 17.359375 -15.359375 C 16.515625 -16.210938 15.316406 -16.640625 13.765625 -16.640625 C 12.546875 -16.640625 11.457031 -16.335938 10.5 -15.734375 C 9.539062 -15.140625 8.796875 -14.3125 8.265625 -13.25 C 7.734375 -12.1875 7.46875 -10.960938 7.46875 -9.578125 C 7.46875 -8.117188 7.898438 -6.960938 8.765625 -6.109375 C 9.628906 -5.253906 10.832031 -4.828125 12.375 -4.828125 Z M 12.375 -4.828125 "/></g></g></g><g fill="#000000" fill-opacity="1"><g transform="translate(448.168279, 365.322673)"><g><path d="M 16.765625 -12.140625 L 24.15625 0 L 16.921875 0 L 11.8125 -8.34375 L 8.03125 -5.1875 L 6.984375 0 L 0.765625 0 L 6.671875 -29.625 L 12.890625 -29.625 L 9.578125 -13.046875 L 19.875 -21.484375 L 27.984375 -21.484375 Z M 16.765625 -12.140625 "/></g></g></g><g fill="#000000" fill-opacity="1"><g transform="translate(473.916677, 365.322673)"><g><path d="M 5.03125 -21.484375 L 11.21875 -21.484375 L 6.953125 0 L 0.765625 0 Z M 9.1875 -24.46875 C 8.125 -24.46875 7.25 -24.78125 6.5625 -25.40625 C 5.882812 -26.03125 5.546875 -26.796875 5.546875 -27.703125 C 5.546875 -28.765625 5.925781 -29.648438 6.6875 -30.359375 C 7.445312 -31.066406 8.441406 -31.421875 9.671875 -31.421875 C 10.753906 -31.421875 11.632812 -31.117188 12.3125 -30.515625 C 13 -29.921875 13.34375 -29.179688 13.34375 -28.296875 C 13.34375 -27.160156 12.953125 -26.238281 12.171875 -25.53125 C 11.398438 -24.820312 10.40625 -24.46875 9.1875 -24.46875 Z M 9.1875 -24.46875 "/></g></g></g><g fill="#000000" fill-opacity="1"><g transform="translate(485.892675, 365.322673)"><g><path d="M 17.53125 -21.796875 C 19.925781 -21.796875 21.828125 -21.160156 23.234375 -19.890625 C 24.640625 -18.628906 25.34375 -16.828125 25.34375 -14.484375 C 25.34375 -13.609375 25.253906 -12.742188 25.078125 -11.890625 L 22.671875 0 L 16.453125 0 L 18.765625 -11.5 C 18.867188 -11.945312 18.921875 -12.4375 18.921875 -12.96875 C 18.921875 -14.09375 18.613281 -14.945312 18 -15.53125 C 17.394531 -16.113281 16.476562 -16.40625 15.25 -16.40625 C 13.65625 -16.40625 12.332031 -15.945312 11.28125 -15.03125 C 10.226562 -14.113281 9.515625 -12.738281 9.140625 -10.90625 L 6.984375 0 L 0.765625 0 L 5.03125 -21.484375 L 10.9375 -21.484375 L 10.453125 -19.15625 C 12.367188 -20.914062 14.726562 -21.796875 17.53125 -21.796875 Z M 17.53125 -21.796875 "/></g></g></g><g fill="#000000" fill-opacity="1"><g transform="translate(513.477384, 365.322673)"><g><path d="M 27.1875 -21.484375 L 23.640625 -3.59375 C 22.835938 0.445312 21.296875 3.398438 19.015625 5.265625 C 16.742188 7.128906 13.707031 8.0625 9.90625 8.0625 C 7.820312 8.0625 5.910156 7.820312 4.171875 7.34375 C 2.429688 6.863281 0.9375 6.160156 -0.3125 5.234375 L 2.640625 0.71875 C 3.484375 1.4375 4.578125 2 5.921875 2.40625 C 7.265625 2.820312 8.6875 3.03125 10.1875 3.03125 C 12.28125 3.03125 13.875 2.570312 14.96875 1.65625 C 16.0625 0.738281 16.804688 -0.648438 17.203125 -2.515625 L 17.359375 -3.4375 C 15.628906 -1.832031 13.445312 -1.03125 10.8125 -1.03125 C 9.03125 -1.03125 7.421875 -1.394531 5.984375 -2.125 C 4.546875 -2.863281 3.40625 -3.910156 2.5625 -5.265625 C 1.726562 -6.628906 1.3125 -8.226562 1.3125 -10.0625 C 1.3125 -12.238281 1.832031 -14.21875 2.875 -16 C 3.914062 -17.789062 5.347656 -19.203125 7.171875 -20.234375 C 8.992188 -21.273438 11.035156 -21.796875 13.296875 -21.796875 C 14.972656 -21.796875 16.441406 -21.484375 17.703125 -20.859375 C 18.972656 -20.234375 19.925781 -19.269531 20.5625 -17.96875 L 21.234375 -21.484375 Z M 12.5 -6.140625 C 14.300781 -6.140625 15.785156 -6.722656 16.953125 -7.890625 C 18.128906 -9.066406 18.71875 -10.578125 18.71875 -12.421875 C 18.71875 -13.722656 18.289062 -14.75 17.4375 -15.5 C 16.59375 -16.257812 15.410156 -16.640625 13.890625 -16.640625 C 12.054688 -16.640625 10.546875 -16.054688 9.359375 -14.890625 C 8.171875 -13.722656 7.578125 -12.21875 7.578125 -10.375 C 7.578125 -9.070312 8.015625 -8.039062 8.890625 -7.28125 C 9.773438 -6.519531 10.976562 -6.140625 12.5 -6.140625 Z M 12.5 -6.140625 "/></g></g></g><g fill="#000000" fill-opacity="1"><g transform="translate(267.729922, 421.465732)"><g><path d="M 15.328125 -25.03125 C 14.367188 -25.03125 13.613281 -24.769531 13.0625 -24.25 C 12.519531 -23.726562 12.144531 -22.910156 11.9375 -21.796875 L 11.78125 -21 L 17.25 -21 L 16.28125 -16.203125 L 10.984375 -16.203125 L 7.75 0 L 1.515625 0 L 4.75 -16.203125 L 1.390625 -16.203125 L 2.359375 -21 L 5.703125 -21 L 5.953125 -22.234375 C 6.453125 -24.628906 7.492188 -26.507812 9.078125 -27.875 C 10.660156 -29.25 12.734375 -29.9375 15.296875 -29.9375 C 16.253906 -29.9375 17.164062 -29.828125 18.03125 -29.609375 C 18.894531 -29.398438 19.628906 -29.113281 20.234375 -28.75 L 17.8125 -24.265625 C 17.144531 -24.773438 16.316406 -25.03125 15.328125 -25.03125 Z M 15.328125 -25.03125 "/></g></g></g><g fill="#000000" fill-opacity="1"><g transform="translate(283.178962, 421.465732)"><g><path d="M 11.96875 0.3125 C 9.820312 0.3125 7.925781 -0.0820312 6.28125 -0.875 C 4.644531 -1.675781 3.378906 -2.800781 2.484375 -4.25 C 1.597656 -5.695312 1.15625 -7.378906 1.15625 -9.296875 C 1.15625 -11.671875 1.710938 -13.800781 2.828125 -15.6875 C 3.953125 -17.582031 5.5 -19.070312 7.46875 -20.15625 C 9.4375 -21.25 11.65625 -21.796875 14.125 -21.796875 C 16.3125 -21.796875 18.21875 -21.394531 19.84375 -20.59375 C 21.46875 -19.800781 22.722656 -18.675781 23.609375 -17.21875 C 24.503906 -15.769531 24.953125 -14.085938 24.953125 -12.171875 C 24.953125 -9.804688 24.398438 -7.675781 23.296875 -5.78125 C 22.191406 -3.894531 20.644531 -2.40625 18.65625 -1.3125 C 16.675781 -0.226562 14.445312 0.3125 11.96875 0.3125 Z M 12.375 -4.828125 C 13.570312 -4.828125 14.648438 -5.125 15.609375 -5.71875 C 16.566406 -6.320312 17.3125 -7.15625 17.84375 -8.21875 C 18.375 -9.289062 18.640625 -10.515625 18.640625 -11.890625 C 18.640625 -13.359375 18.210938 -14.515625 17.359375 -15.359375 C 16.515625 -16.210938 15.316406 -16.640625 13.765625 -16.640625 C 12.546875 -16.640625 11.457031 -16.335938 10.5 -15.734375 C 9.539062 -15.140625 8.796875 -14.3125 8.265625 -13.25 C 7.734375 -12.1875 7.46875 -10.960938 7.46875 -9.578125 C 7.46875 -8.117188 7.898438 -6.960938 8.765625 -6.109375 C 9.628906 -5.253906 10.832031 -4.828125 12.375 -4.828125 Z M 12.375 -4.828125 "/></g></g></g><g fill="#000000" fill-opacity="1"><g transform="translate(309.286638, 421.465732)"><g><path d="M 10.421875 -18.921875 C 11.347656 -19.929688 12.46875 -20.660156 13.78125 -21.109375 C 15.101562 -21.566406 16.65625 -21.796875 18.4375 -21.796875 L 17.328125 -16.046875 C 16.578125 -16.097656 16.097656 -16.125 15.890625 -16.125 C 13.992188 -16.125 12.476562 -15.65625 11.34375 -14.71875 C 10.21875 -13.789062 9.457031 -12.34375 9.0625 -10.375 L 6.984375 0 L 0.765625 0 L 5.03125 -21.484375 L 10.9375 -21.484375 Z M 10.421875 -18.921875 "/></g></g></g><g fill="#000000" fill-opacity="1"><g transform="translate(326.492157, 421.465732)"><g><path d="M 3.59375 0.3125 C 2.53125 0.3125 1.648438 -0.0234375 0.953125 -0.703125 C 0.265625 -1.378906 -0.078125 -2.238281 -0.078125 -3.28125 C -0.078125 -4.5 0.316406 -5.492188 1.109375 -6.265625 C 1.910156 -7.035156 2.898438 -7.421875 4.078125 -7.421875 C 5.140625 -7.421875 6.007812 -7.085938 6.6875 -6.421875 C 7.363281 -5.753906 7.703125 -4.890625 7.703125 -3.828125 C 7.703125 -2.628906 7.296875 -1.640625 6.484375 -0.859375 C 5.671875 -0.078125 4.707031 0.3125 3.59375 0.3125 Z M 3.59375 0.3125 "/></g></g></g><g fill="#ffc1b2" fill-opacity="0.302"><g transform="translate(165.838072, 115.627292)"><g><path d="M 74.503906 -2.414062 C 72.863281 -4.15625 72.089844 -6.183594 72.089844 -8.503906 L 72.089844 -87.839844 C 72.089844 -89.964844 72.863281 -91.800781 74.40625 -93.542969 C 74.792969 -94.023438 74.890625 -94.605469 74.699219 -95.183594 C 74.40625 -95.765625 73.925781 -96.054688 73.25 -96.054688 L 57.882812 -96.054688 C 56.335938 -96.054688 54.792969 -95.667969 53.4375 -95.085938 C 51.988281 -94.410156 50.828125 -93.445312 49.863281 -92.285156 L 13.722656 -49.378906 C 12.273438 -47.640625 11.597656 -45.707031 11.597656 -43.582031 L 11.597656 -24.160156 C 11.597656 -23.191406 11.886719 -22.324219 12.5625 -21.644531 C 13.238281 -20.96875 14.109375 -20.679688 15.074219 -20.679688 L 49.960938 -20.679688 C 50.828125 -20.679688 51.503906 -20.390625 52.085938 -19.808594 C 52.664062 -19.230469 52.957031 -18.457031 52.957031 -17.683594 L 52.957031 -8.503906 C 52.957031 -7.34375 52.761719 -6.28125 52.375 -5.21875 C 51.988281 -4.15625 51.410156 -3.1875 50.636719 -2.414062 C 50.25 -1.835938 50.152344 -1.351562 50.441406 -0.773438 C 50.734375 -0.191406 51.214844 0 51.890625 0 L 73.441406 0 C 74.019531 0 74.503906 -0.289062 74.792969 -0.871094 C 74.988281 -1.449219 74.890625 -1.933594 74.503906 -2.414062 Z M 52.957031 -63.488281 L 52.957031 -40.875 C 52.957031 -40.101562 52.570312 -39.8125 51.988281 -39.8125 L 32.953125 -39.8125 C 32.46875 -39.8125 32.179688 -40.007812 31.984375 -40.394531 C 31.792969 -40.78125 31.792969 -41.070312 32.179688 -41.457031 L 51.214844 -64.164062 C 51.503906 -64.453125 51.890625 -64.550781 52.277344 -64.453125 C 52.664062 -64.261719 52.957031 -63.972656 52.957031 -63.488281 Z M 52.957031 -63.488281 "/></g></g></g><g fill="#ffc1b2" fill-opacity="0.302"><g transform="translate(252.41368, 115.627292)"><g><path d="M 68.320312 -79.144531 C 65.808594 -84.554688 62.328125 -88.710938 57.882812 -91.609375 C 53.4375 -94.507812 48.316406 -95.957031 42.519531 -95.957031 C 40.585938 -95.957031 38.460938 -95.667969 36.140625 -95.28125 C 33.820312 -94.894531 31.597656 -94.023438 29.28125 -92.769531 C 26.960938 -91.511719 24.835938 -89.773438 22.707031 -87.648438 C 20.582031 -85.425781 18.648438 -82.523438 17.007812 -78.949219 C 15.363281 -75.375 14.011719 -71.027344 13.046875 -66 C 12.078125 -60.976562 11.597656 -54.984375 11.597656 -48.027344 C 11.597656 -41.070312 12.078125 -34.980469 13.046875 -29.957031 C 14.011719 -24.835938 15.363281 -20.484375 17.007812 -16.910156 C 18.648438 -13.335938 20.582031 -10.4375 22.707031 -8.308594 C 24.835938 -6.089844 26.960938 -4.347656 29.28125 -3.09375 C 31.597656 -1.835938 33.820312 -0.964844 36.140625 -0.578125 C 38.460938 -0.191406 40.585938 0 42.519531 0 C 44.453125 0 46.480469 -0.191406 48.800781 -0.578125 C 51.023438 -0.964844 53.246094 -1.835938 55.5625 -3.09375 C 57.882812 -4.347656 60.105469 -6.089844 62.230469 -8.308594 C 64.359375 -10.4375 66.195312 -13.335938 67.835938 -16.910156 C 69.480469 -20.484375 70.832031 -24.835938 71.796875 -29.957031 C 72.765625 -34.980469 73.34375 -41.070312 73.34375 -48.027344 C 73.34375 -54.792969 72.863281 -60.78125 72.089844 -65.808594 C 71.21875 -70.832031 69.960938 -75.277344 68.320312 -79.144531 Z M 42.519531 -19.132812 C 40.007812 -19.132812 38.074219 -20.003906 36.527344 -21.742188 C 34.980469 -23.480469 33.820312 -25.800781 32.953125 -28.601562 C 32.082031 -31.308594 31.503906 -34.402344 31.210938 -37.878906 C 30.824219 -41.359375 30.730469 -44.742188 30.730469 -48.027344 C 30.730469 -51.3125 30.824219 -54.597656 31.210938 -58.078125 C 31.503906 -61.457031 32.082031 -64.550781 32.953125 -67.351562 C 33.820312 -70.058594 34.980469 -72.378906 36.527344 -74.117188 C 38.074219 -75.855469 40.007812 -76.824219 42.519531 -76.824219 C 43.097656 -76.824219 43.773438 -76.726562 44.546875 -76.628906 C 45.320312 -76.535156 46.191406 -76.242188 47.058594 -75.761719 C 47.929688 -75.179688 48.800781 -74.40625 49.667969 -73.25 C 50.441406 -72.089844 51.214844 -70.445312 51.890625 -68.320312 C 52.570312 -66.195312 53.148438 -63.488281 53.535156 -60.203125 C 53.921875 -56.917969 54.210938 -52.859375 54.210938 -48.027344 C 54.210938 -44.742188 54.019531 -41.359375 53.726562 -37.878906 C 53.339844 -34.402344 52.761719 -31.308594 51.988281 -28.601562 C 51.117188 -25.800781 49.960938 -23.480469 48.414062 -21.742188 C 46.867188 -20.003906 44.839844 -19.132812 42.519531 -19.132812 Z M 42.519531 -19.132812 "/></g></g></g><g fill="#ffc1b2" fill-opacity="0.302"><g transform="translate(337.346665, 115.627292)"><g><path d="M 74.503906 -2.414062 C 72.863281 -4.15625 72.089844 -6.183594 72.089844 -8.503906 L 72.089844 -87.839844 C 72.089844 -89.964844 72.863281 -91.800781 74.40625 -93.542969 C 74.792969 -94.023438 74.890625 -94.605469 74.699219 -95.183594 C 74.40625 -95.765625 73.925781 -96.054688 73.25 -96.054688 L 57.882812 -96.054688 C 56.335938 -96.054688 54.792969 -95.667969 53.4375 -95.085938 C 51.988281 -94.410156 50.828125 -93.445312 49.863281 -92.285156 L 13.722656 -49.378906 C 12.273438 -47.640625 11.597656 -45.707031 11.597656 -43.582031 L 11.597656 -24.160156 C 11.597656 -23.191406 11.886719 -22.324219 12.5625 -21.644531 C 13.238281 -20.96875 14.109375 -20.679688 15.074219 -20.679688 L 49.960938 -20.679688 C 50.828125 -20.679688 51.503906 -20.390625 52.085938 -19.808594 C 52.664062 -19.230469 52.957031 -18.457031 52.957031 -17.683594 L 52.957031 -8.503906 C 52.957031 -7.34375 52.761719 -6.28125 52.375 -5.21875 C 51.988281 -4.15625 51.410156 -3.1875 50.636719 -2.414062 C 50.25 -1.835938 50.152344 -1.351562 50.441406 -0.773438 C 50.734375 -0.191406 51.214844 0 51.890625 0 L 73.441406 0 C 74.019531 0 74.503906 -0.289062 74.792969 -0.871094 C 74.988281 -1.449219 74.890625 -1.933594 74.503906 -2.414062 Z M 52.957031 -63.488281 L 52.957031 -40.875 C 52.957031 -40.101562 52.570312 -39.8125 51.988281 -39.8125 L 32.953125 -39.8125 C 32.46875 -39.8125 32.179688 -40.007812 31.984375 -40.394531 C 31.792969 -40.78125 31.792969 -41.070312 32.179688 -41.457031 L 51.214844 -64.164062 C 51.503906 -64.453125 51.890625 -64.550781 52.277344 -64.453125 C 52.664062 -64.261719 52.957031 -63.972656 52.957031 -63.488281 Z M 52.957031 -63.488281 "/></g></g></g><g fill="#ffc1b2" fill-opacity="0.502"><g transform="translate(168.395451, 116.712834)"><g><path d="M 74.503906 -2.414062 C 72.863281 -4.15625 72.089844 -6.183594 72.089844 -8.503906 L 72.089844 -87.839844 C 72.089844 -89.964844 72.863281 -91.800781 74.40625 -93.542969 C 74.792969 -94.023438 74.890625 -94.605469 74.699219 -95.183594 C 74.40625 -95.765625 73.925781 -96.054688 73.25 -96.054688 L 57.882812 -96.054688 C 56.335938 -96.054688 54.792969 -95.667969 53.4375 -95.085938 C 51.988281 -94.410156 50.828125 -93.445312 49.863281 -92.285156 L 13.722656 -49.378906 C 12.273438 -47.640625 11.597656 -45.707031 11.597656 -43.582031 L 11.597656 -24.160156 C 11.597656 -23.191406 11.886719 -22.324219 12.5625 -21.644531 C 13.238281 -20.96875 14.109375 -20.679688 15.074219 -20.679688 L 49.960938 -20.679688 C 50.828125 -20.679688 51.503906 -20.390625 52.085938 -19.808594 C 52.664062 -19.230469 52.957031 -18.457031 52.957031 -17.683594 L 52.957031 -8.503906 C 52.957031 -7.34375 52.761719 -6.28125 52.375 -5.21875 C 51.988281 -4.15625 51.410156 -3.1875 50.636719 -2.414062 C 50.25 -1.835938 50.152344 -1.351562 50.441406 -0.773438 C 50.734375 -0.191406 51.214844 0 51.890625 0 L 73.441406 0 C 74.019531 0 74.503906 -0.289062 74.792969 -0.871094 C 74.988281 -1.449219 74.890625 -1.933594 74.503906 -2.414062 Z M 52.957031 -63.488281 L 52.957031 -40.875 C 52.957031 -40.101562 52.570312 -39.8125 51.988281 -39.8125 L 32.953125 -39.8125 C 32.46875 -39.8125 32.179688 -40.007812 31.984375 -40.394531 C 31.792969 -40.78125 31.792969 -41.070312 32.179688 -41.457031 L 51.214844 -64.164062 C 51.503906 -64.453125 51.890625 -64.550781 52.277344 -64.453125 C 52.664062 -64.261719 52.957031 -63.972656 52.957031 -63.488281 Z M 52.957031 -63.488281 "/></g></g></g><g fill="#ffc1b2" fill-opacity="0.502"><g transform="translate(254.971059, 116.712834)"><g><path d="M 68.320312 -79.144531 C 65.808594 -84.554688 62.328125 -88.710938 57.882812 -91.609375 C 53.4375 -94.507812 48.316406 -95.957031 42.519531 -95.957031 C 40.585938 -95.957031 38.460938 -95.667969 36.140625 -95.28125 C 33.820312 -94.894531 31.597656 -94.023438 29.28125 -92.769531 C 26.960938 -91.511719 24.835938 -89.773438 22.707031 -87.648438 C 20.582031 -85.425781 18.648438 -82.523438 17.007812 -78.949219 C 15.363281 -75.375 14.011719 -71.027344 13.046875 -66 C 12.078125 -60.976562 11.597656 -54.984375 11.597656 -48.027344 C 11.597656 -41.070312 12.078125 -34.980469 13.046875 -29.957031 C 14.011719 -24.835938 15.363281 -20.484375 17.007812 -16.910156 C 18.648438 -13.335938 20.582031 -10.4375 22.707031 -8.308594 C 24.835938 -6.089844 26.960938 -4.347656 29.28125 -3.09375 C 31.597656 -1.835938 33.820312 -0.964844 36.140625 -0.578125 C 38.460938 -0.191406 40.585938 0 42.519531 0 C 44.453125 0 46.480469 -0.191406 48.800781 -0.578125 C 51.023438 -0.964844 53.246094 -1.835938 55.5625 -3.09375 C 57.882812 -4.347656 60.105469 -6.089844 62.230469 -8.308594 C 64.359375 -10.4375 66.195312 -13.335938 67.835938 -16.910156 C 69.480469 -20.484375 70.832031 -24.835938 71.796875 -29.957031 C 72.765625 -34.980469 73.34375 -41.070312 73.34375 -48.027344 C 73.34375 -54.792969 72.863281 -60.78125 72.089844 -65.808594 C 71.21875 -70.832031 69.960938 -75.277344 68.320312 -79.144531 Z M 42.519531 -19.132812 C 40.007812 -19.132812 38.074219 -20.003906 36.527344 -21.742188 C 34.980469 -23.480469 33.820312 -25.800781 32.953125 -28.601562 C 32.082031 -31.308594 31.503906 -34.402344 31.210938 -37.878906 C 30.824219 -41.359375 30.730469 -44.742188 30.730469 -48.027344 C 30.730469 -51.3125 30.824219 -54.597656 31.210938 -58.078125 C 31.503906 -61.457031 32.082031 -64.550781 32.953125 -67.351562 C 33.820312 -70.058594 34.980469 -72.378906 36.527344 -74.117188 C 38.074219 -75.855469 40.007812 -76.824219 42.519531 -76.824219 C 43.097656 -76.824219 43.773438 -76.726562 44.546875 -76.628906 C 45.320312 -76.535156 46.191406 -76.242188 47.058594 -75.761719 C 47.929688 -75.179688 48.800781 -74.40625 49.667969 -73.25 C 50.441406 -72.089844 51.214844 -70.445312 51.890625 -68.320312 C 52.570312 -66.195312 53.148438 -63.488281 53.535156 -60.203125 C 53.921875 -56.917969 54.210938 -52.859375 54.210938 -48.027344 C 54.210938 -44.742188 54.019531 -41.359375 53.726562 -37.878906 C 53.339844 -34.402344 52.761719 -31.308594 51.988281 -28.601562 C 51.117188 -25.800781 49.960938 -23.480469 48.414062 -21.742188 C 46.867188 -20.003906 44.839844 -19.132812 42.519531 -19.132812 Z M 42.519531 -19.132812 "/></g></g></g><g fill="#ffc1b2" fill-opacity="0.502"><g transform="translate(339.904044, 116.712834)"><g><path d="M 74.503906 -2.414062 C 72.863281 -4.15625 72.089844 -6.183594 72.089844 -8.503906 L 72.089844 -87.839844 C 72.089844 -89.964844 72.863281 -91.800781 74.40625 -93.542969 C 74.792969 -94.023438 74.890625 -94.605469 74.699219 -95.183594 C 74.40625 -95.765625 73.925781 -96.054688 73.25 -96.054688 L 57.882812 -96.054688 C 56.335938 -96.054688 54.792969 -95.667969 53.4375 -95.085938 C 51.988281 -94.410156 50.828125 -93.445312 49.863281 -92.285156 L 13.722656 -49.378906 C 12.273438 -47.640625 11.597656 -45.707031 11.597656 -43.582031 L 11.597656 -24.160156 C 11.597656 -23.191406 11.886719 -22.324219 12.5625 -21.644531 C 13.238281 -20.96875 14.109375 -20.679688 15.074219 -20.679688 L 49.960938 -20.679688 C 50.828125 -20.679688 51.503906 -20.390625 52.085938 -19.808594 C 52.664062 -19.230469 52.957031 -18.457031 52.957031 -17.683594 L 52.957031 -8.503906 C 52.957031 -7.34375 52.761719 -6.28125 52.375 -5.21875 C 51.988281 -4.15625 51.410156 -3.1875 50.636719 -2.414062 C 50.25 -1.835938 50.152344 -1.351562 50.441406 -0.773438 C 50.734375 -0.191406 51.214844 0 51.890625 0 L 73.441406 0 C 74.019531 0 74.503906 -0.289062 74.792969 -0.871094 C 74.988281 -1.449219 74.890625 -1.933594 74.503906 -2.414062 Z M 52.957031 -63.488281 L 52.957031 -40.875 C 52.957031 -40.101562 52.570312 -39.8125 51.988281 -39.8125 L 32.953125 -39.8125 C 32.46875 -39.8125 32.179688 -40.007812 31.984375 -40.394531 C 31.792969 -40.78125 31.792969 -41.070312 32.179688 -41.457031 L 51.214844 -64.164062 C 51.503906 -64.453125 51.890625 -64.550781 52.277344 -64.453125 C 52.664062 -64.261719 52.957031 -63.972656 52.957031 -63.488281 Z M 52.957031 -63.488281 "/></g></g></g><g fill="#ff1616" fill-opacity="1"><g transform="translate(170.952827, 117.798376)"><g><path d="M 74.503906 -2.414062 C 72.863281 -4.15625 72.089844 -6.183594 72.089844 -8.503906 L 72.089844 -87.839844 C 72.089844 -89.964844 72.863281 -91.800781 74.40625 -93.542969 C 74.792969 -94.023438 74.890625 -94.605469 74.699219 -95.183594 C 74.40625 -95.765625 73.925781 -96.054688 73.25 -96.054688 L 57.882812 -96.054688 C 56.335938 -96.054688 54.792969 -95.667969 53.4375 -95.085938 C 51.988281 -94.410156 50.828125 -93.445312 49.863281 -92.285156 L 13.722656 -49.378906 C 12.273438 -47.640625 11.597656 -45.707031 11.597656 -43.582031 L 11.597656 -24.160156 C 11.597656 -23.191406 11.886719 -22.324219 12.5625 -21.644531 C 13.238281 -20.96875 14.109375 -20.679688 15.074219 -20.679688 L 49.960938 -20.679688 C 50.828125 -20.679688 51.503906 -20.390625 52.085938 -19.808594 C 52.664062 -19.230469 52.957031 -18.457031 52.957031 -17.683594 L 52.957031 -8.503906 C 52.957031 -7.34375 52.761719 -6.28125 52.375 -5.21875 C 51.988281 -4.15625 51.410156 -3.1875 50.636719 -2.414062 C 50.25 -1.835938 50.152344 -1.351562 50.441406 -0.773438 C 50.734375 -0.191406 51.214844 0 51.890625 0 L 73.441406 0 C 74.019531 0 74.503906 -0.289062 74.792969 -0.871094 C 74.988281 -1.449219 74.890625 -1.933594 74.503906 -2.414062 Z M 52.957031 -63.488281 L 52.957031 -40.875 C 52.957031 -40.101562 52.570312 -39.8125 51.988281 -39.8125 L 32.953125 -39.8125 C 32.46875 -39.8125 32.179688 -40.007812 31.984375 -40.394531 C 31.792969 -40.78125 31.792969 -41.070312 32.179688 -41.457031 L 51.214844 -64.164062 C 51.503906 -64.453125 51.890625 -64.550781 52.277344 -64.453125 C 52.664062 -64.261719 52.957031 -63.972656 52.957031 -63.488281 Z M 52.957031 -63.488281 "/></g></g></g><g fill="#ff1616" fill-opacity="1"><g transform="translate(257.528435, 117.798376)"><g><path d="M 68.320312 -79.144531 C 65.808594 -84.554688 62.328125 -88.710938 57.882812 -91.609375 C 53.4375 -94.507812 48.316406 -95.957031 42.519531 -95.957031 C 40.585938 -95.957031 38.460938 -95.667969 36.140625 -95.28125 C 33.820312 -94.894531 31.597656 -94.023438 29.28125 -92.769531 C 26.960938 -91.511719 24.835938 -89.773438 22.707031 -87.648438 C 20.582031 -85.425781 18.648438 -82.523438 17.007812 -78.949219 C 15.363281 -75.375 14.011719 -71.027344 13.046875 -66 C 12.078125 -60.976562 11.597656 -54.984375 11.597656 -48.027344 C 11.597656 -41.070312 12.078125 -34.980469 13.046875 -29.957031 C 14.011719 -24.835938 15.363281 -20.484375 17.007812 -16.910156 C 18.648438 -13.335938 20.582031 -10.4375 22.707031 -8.308594 C 24.835938 -6.089844 26.960938 -4.347656 29.28125 -3.09375 C 31.597656 -1.835938 33.820312 -0.964844 36.140625 -0.578125 C 38.460938 -0.191406 40.585938 0 42.519531 0 C 44.453125 0 46.480469 -0.191406 48.800781 -0.578125 C 51.023438 -0.964844 53.246094 -1.835938 55.5625 -3.09375 C 57.882812 -4.347656 60.105469 -6.089844 62.230469 -8.308594 C 64.359375 -10.4375 66.195312 -13.335938 67.835938 -16.910156 C 69.480469 -20.484375 70.832031 -24.835938 71.796875 -29.957031 C 72.765625 -34.980469 73.34375 -41.070312 73.34375 -48.027344 C 73.34375 -54.792969 72.863281 -60.78125 72.089844 -65.808594 C 71.21875 -70.832031 69.960938 -75.277344 68.320312 -79.144531 Z M 42.519531 -19.132812 C 40.007812 -19.132812 38.074219 -20.003906 36.527344 -21.742188 C 34.980469 -23.480469 33.820312 -25.800781 32.953125 -28.601562 C 32.082031 -31.308594 31.503906 -34.402344 31.210938 -37.878906 C 30.824219 -41.359375 30.730469 -44.742188 30.730469 -48.027344 C 30.730469 -51.3125 30.824219 -54.597656 31.210938 -58.078125 C 31.503906 -61.457031 32.082031 -64.550781 32.953125 -67.351562 C 33.820312 -70.058594 34.980469 -72.378906 36.527344 -74.117188 C 38.074219 -75.855469 40.007812 -76.824219 42.519531 -76.824219 C 43.097656 -76.824219 43.773438 -76.726562 44.546875 -76.628906 C 45.320312 -76.535156 46.191406 -76.242188 47.058594 -75.761719 C 47.929688 -75.179688 48.800781 -74.40625 49.667969 -73.25 C 50.441406 -72.089844 51.214844 -70.445312 51.890625 -68.320312 C 52.570312 -66.195312 53.148438 -63.488281 53.535156 -60.203125 C 53.921875 -56.917969 54.210938 -52.859375 54.210938 -48.027344 C 54.210938 -44.742188 54.019531 -41.359375 53.726562 -37.878906 C 53.339844 -34.402344 52.761719 -31.308594 51.988281 -28.601562 C 51.117188 -25.800781 49.960938 -23.480469 48.414062 -21.742188 C 46.867188 -20.003906 44.839844 -19.132812 42.519531 -19.132812 Z M 42.519531 -19.132812 "/></g></g></g><g fill="#ff1616" fill-opacity="1"><g transform="translate(342.46142, 117.798376)"><g><path d="M 74.503906 -2.414062 C 72.863281 -4.15625 72.089844 -6.183594 72.089844 -8.503906 L 72.089844 -87.839844 C 72.089844 -89.964844 72.863281 -91.800781 74.40625 -93.542969 C 74.792969 -94.023438 74.890625 -94.605469 74.699219 -95.183594 C 74.40625 -95.765625 73.925781 -96.054688 73.25 -96.054688 L 57.882812 -96.054688 C 56.335938 -96.054688 54.792969 -95.667969 53.4375 -95.085938 C 51.988281 -94.410156 50.828125 -93.445312 49.863281 -92.285156 L 13.722656 -49.378906 C 12.273438 -47.640625 11.597656 -45.707031 11.597656 -43.582031 L 11.597656 -24.160156 C 11.597656 -23.191406 11.886719 -22.324219 12.5625 -21.644531 C 13.238281 -20.96875 14.109375 -20.679688 15.074219 -20.679688 L 49.960938 -20.679688 C 50.828125 -20.679688 51.503906 -20.390625 52.085938 -19.808594 C 52.664062 -19.230469 52.957031 -18.457031 52.957031 -17.683594 L 52.957031 -8.503906 C 52.957031 -7.34375 52.761719 -6.28125 52.375 -5.21875 C 51.988281 -4.15625 51.410156 -3.1875 50.636719 -2.414062 C 50.25 -1.835938 50.152344 -1.351562 50.441406 -0.773438 C 50.734375 -0.191406 51.214844 0 51.890625 0 L 73.441406 0 C 74.019531 0 74.503906 -0.289062 74.792969 -0.871094 C 74.988281 -1.449219 74.890625 -1.933594 74.503906 -2.414062 Z M 52.957031 -63.488281 L 52.957031 -40.875 C 52.957031 -40.101562 52.570312 -39.8125 51.988281 -39.8125 L 32.953125 -39.8125 C 32.46875 -39.8125 32.179688 -40.007812 31.984375 -40.394531 C 31.792969 -40.78125 31.792969 -41.070312 32.179688 -41.457031 L 51.214844 -64.164062 C 51.503906 -64.453125 51.890625 -64.550781 52.277344 -64.453125 C 52.664062 -64.261719 52.957031 -63.972656 52.957031 -63.488281 Z M 52.957031 -63.488281 "/></g></g></g></svg>