<svg xmlns="http://www.w3.org/2000/svg" xmlns:xlink="http://www.w3.org/1999/xlink" width="800" zoomAndPan="magnify" viewBox="0 0 600 525.000007" height="700" preserveAspectRatio="xMidYMid meet" version="1.0"><defs><g/><clipPath id="id1"><path d="M 111 482 L 175 482 L 175 524 L 111 524 Z M 111 482 " clip-rule="nonzero"/></clipPath><clipPath id="id2"><path d="M 111 510 L 175 510 L 175 524 L 111 524 Z M 111 510 " clip-rule="nonzero"/></clipPath><clipPath id="id3"><path d="M 205 482 L 268 482 L 268 524 L 205 524 Z M 205 482 " clip-rule="nonzero"/></clipPath><clipPath id="id4"><path d="M 205 510 L 268 510 L 268 524 L 205 524 Z M 205 510 " clip-rule="nonzero"/></clipPath><clipPath id="id5"><path d="M 87 125.792969 L 292 125.792969 L 292 299 L 87 299 Z M 87 125.792969 " clip-rule="nonzero"/></clipPath></defs><path fill="#ef6906" d="M 264.328125 411.695312 C 264.328125 427.101562 251.832031 510.179688 236.414062 510.179688 C 221.015625 510.179688 208.527344 427.09375 208.527344 411.695312 C 208.527344 396.292969 221.019531 383.792969 236.414062 383.792969 C 251.832031 383.792969 264.328125 396.292969 264.328125 411.695312 Z M 264.328125 411.695312 " fill-opacity="1" fill-rule="nonzero"/><path fill="#ef6906" d="M 170.835938 411.695312 C 170.835938 427.101562 158.339844 510.179688 142.921875 510.179688 C 127.519531 510.179688 115.03125 427.09375 115.03125 411.695312 C 115.03125 396.292969 127.527344 383.792969 142.921875 383.792969 C 158.339844 383.792969 170.835938 396.292969 170.835938 411.695312 Z M 170.835938 411.695312 " fill-opacity="1" fill-rule="nonzero"/><path fill="#f7a006" d="M 180.992188 286.765625 C 188.910156 295.675781 183.882812 313.074219 169.757812 325.648438 C 155.632812 338.207031 79.6875 392.816406 71.753906 383.921875 C 63.84375 375 126.964844 305.941406 141.089844 293.386719 C 155.203125 280.828125 173.070312 277.859375 180.992188 286.765625 Z M 180.992188 286.765625 " fill-opacity="1" fill-rule="nonzero"/><path fill="#f7a006" d="M 198.351562 286.765625 C 190.429688 295.675781 195.457031 313.074219 209.582031 325.648438 C 223.707031 338.207031 299.652344 392.816406 307.589844 383.921875 C 315.496094 375 252.375 305.941406 238.25 293.386719 C 224.136719 280.828125 206.273438 277.859375 198.351562 286.765625 Z M 198.351562 286.765625 " fill-opacity="1" fill-rule="nonzero"/><path fill="#f9be03" d="M 268.386719 374.824219 C 268.386719 474.621094 233.152344 441.386719 189.671875 441.386719 C 146.199219 441.386719 110.957031 474.621094 110.957031 374.824219 C 110.957031 317.765625 146.214844 271.511719 189.671875 271.511719 C 233.140625 271.519531 268.386719 317.773438 268.386719 374.824219 Z M 268.386719 374.824219 " fill-opacity="1" fill-rule="nonzero"/><g clip-path="url(#id1)"><path fill="#ff7300" d="M 174.320312 510.683594 C 174.320312 522.480469 160.257812 524.035156 142.925781 524.035156 C 125.597656 524.035156 111.535156 522.488281 111.535156 510.683594 C 111.535156 498.878906 125.597656 482.632812 142.925781 482.632812 C 160.257812 482.632812 174.320312 498.878906 174.320312 510.683594 Z M 174.320312 510.683594 " fill-opacity="1" fill-rule="nonzero"/></g><g clip-path="url(#id2)"><path fill="#ef6906" d="M 174.320312 510.683594 C 174.320312 522.480469 160.257812 524.035156 142.925781 524.035156 C 125.597656 524.035156 111.535156 522.488281 111.535156 510.683594 " fill-opacity="1" fill-rule="nonzero"/></g><g clip-path="url(#id3)"><path fill="#ff7300" d="M 267.820312 510.683594 C 267.820312 522.480469 253.757812 524.035156 236.425781 524.035156 C 219.097656 524.035156 205.035156 522.488281 205.035156 510.683594 C 205.035156 498.878906 219.097656 482.632812 236.425781 482.632812 C 253.757812 482.632812 267.820312 498.878906 267.820312 510.683594 Z M 267.820312 510.683594 " fill-opacity="1" fill-rule="nonzero"/></g><g clip-path="url(#id4)"><path fill="#ef6906" d="M 267.820312 510.683594 C 267.820312 522.480469 253.757812 524.035156 236.425781 524.035156 C 219.097656 524.035156 205.035156 522.488281 205.035156 510.683594 " fill-opacity="1" fill-rule="nonzero"/></g><g clip-path="url(#id5)"><path fill="#f9be03" d="M 291.539062 223.953125 C 291.539062 273.730469 245.929688 298.75 189.683594 298.75 C 133.425781 298.75 87.800781 273.730469 87.800781 223.953125 C 87.800781 174.167969 133.425781 125.792969 189.683594 125.792969 C 245.929688 125.792969 291.539062 174.167969 291.539062 223.953125 Z M 291.539062 223.953125 " fill-opacity="1" fill-rule="nonzero"/></g><path fill="#f7a006" d="M 291.539062 223.953125 C 291.539062 273.730469 245.929688 298.75 189.683594 298.75 C 133.425781 298.75 87.800781 273.730469 87.800781 223.953125 " fill-opacity="1" fill-rule="nonzero"/><path fill="#113e49" d="M 150.34375 192.433594 C 150.34375 193.03125 150.285156 193.621094 150.171875 194.207031 C 150.054688 194.796875 149.878906 195.363281 149.652344 195.917969 C 149.421875 196.46875 149.140625 196.996094 148.808594 197.492188 C 148.476562 197.988281 148.101562 198.449219 147.675781 198.875 C 147.253906 199.296875 146.792969 199.675781 146.296875 200.007812 C 145.800781 200.339844 145.273438 200.621094 144.722656 200.847656 C 144.167969 201.078125 143.597656 201.25 143.011719 201.367188 C 142.425781 201.484375 141.832031 201.542969 141.234375 201.542969 C 140.636719 201.542969 140.042969 201.484375 139.457031 201.367188 C 138.871094 201.25 138.300781 201.078125 137.75 200.847656 C 137.195312 200.621094 136.671875 200.339844 136.175781 200.007812 C 135.675781 199.675781 135.214844 199.296875 134.792969 198.875 C 134.371094 198.449219 133.992188 197.988281 133.660156 197.492188 C 133.328125 196.996094 133.046875 196.46875 132.820312 195.917969 C 132.589844 195.363281 132.417969 194.796875 132.300781 194.207031 C 132.183594 193.621094 132.125 193.03125 132.125 192.433594 C 132.125 191.832031 132.183594 191.242188 132.300781 190.65625 C 132.417969 190.066406 132.589844 189.5 132.820312 188.945312 C 133.046875 188.394531 133.328125 187.867188 133.660156 187.371094 C 133.992188 186.875 134.371094 186.414062 134.792969 185.988281 C 135.214844 185.566406 135.675781 185.1875 136.175781 184.855469 C 136.671875 184.523438 137.195312 184.242188 137.75 184.015625 C 138.300781 183.785156 138.871094 183.613281 139.457031 183.496094 C 140.042969 183.378906 140.636719 183.320312 141.234375 183.320312 C 141.832031 183.320312 142.425781 183.378906 143.011719 183.496094 C 143.597656 183.613281 144.167969 183.785156 144.722656 184.015625 C 145.273438 184.242188 145.800781 184.523438 146.296875 184.855469 C 146.792969 185.1875 147.253906 185.566406 147.675781 185.988281 C 148.101562 186.414062 148.476562 186.875 148.808594 187.371094 C 149.140625 187.867188 149.421875 188.394531 149.652344 188.945312 C 149.878906 189.5 150.054688 190.066406 150.171875 190.65625 C 150.285156 191.242188 150.34375 191.832031 150.34375 192.433594 Z M 150.34375 192.433594 " fill-opacity="1" fill-rule="nonzero"/><path fill="#000000" d="M 150.34375 192.429688 C 150.34375 197.472656 146.261719 201.542969 141.226562 201.542969 C 136.195312 201.542969 132.125 197.472656 132.125 192.429688 " fill-opacity="1" fill-rule="nonzero"/><path fill="#ffce00" d="M 159.207031 211.429688 C 158.71875 211.429688 158.222656 211.253906 157.84375 210.863281 C 153.394531 206.417969 147.488281 203.972656 141.214844 203.972656 L 141.203125 203.972656 C 134.929688 203.972656 129.039062 206.425781 124.613281 210.855469 C 123.859375 211.609375 122.648438 211.628906 121.902344 210.863281 C 121.148438 210.132812 121.125 208.921875 121.875 208.160156 C 127.042969 202.992188 133.898438 200.132812 141.199219 200.132812 L 141.210938 200.132812 C 148.527344 200.132812 155.390625 202.972656 160.570312 208.148438 C 161.308594 208.890625 161.308594 210.128906 160.570312 210.863281 C 160.199219 211.25 159.714844 211.429688 159.207031 211.429688 Z M 159.207031 211.429688 " fill-opacity="1" fill-rule="nonzero"/><path fill="#113e49" d="M 247.253906 192.433594 C 247.253906 193.03125 247.195312 193.621094 247.078125 194.207031 C 246.960938 194.796875 246.789062 195.363281 246.5625 195.917969 C 246.332031 196.46875 246.050781 196.996094 245.71875 197.492188 C 245.386719 197.988281 245.007812 198.449219 244.585938 198.875 C 244.164062 199.296875 243.703125 199.675781 243.207031 200.007812 C 242.707031 200.339844 242.183594 200.621094 241.628906 200.847656 C 241.078125 201.078125 240.507812 201.25 239.921875 201.367188 C 239.335938 201.484375 238.742188 201.542969 238.144531 201.542969 C 237.546875 201.542969 236.953125 201.484375 236.367188 201.367188 C 235.78125 201.25 235.210938 201.078125 234.660156 200.847656 C 234.105469 200.621094 233.582031 200.339844 233.082031 200.007812 C 232.585938 199.675781 232.125 199.296875 231.703125 198.875 C 231.28125 198.449219 230.902344 197.988281 230.570312 197.492188 C 230.238281 196.996094 229.957031 196.46875 229.726562 195.917969 C 229.5 195.363281 229.328125 194.796875 229.210938 194.207031 C 229.09375 193.621094 229.035156 193.03125 229.035156 192.433594 C 229.035156 191.832031 229.09375 191.242188 229.210938 190.65625 C 229.328125 190.066406 229.5 189.5 229.726562 188.945312 C 229.957031 188.394531 230.238281 187.867188 230.570312 187.371094 C 230.902344 186.875 231.28125 186.414062 231.703125 185.988281 C 232.125 185.566406 232.585938 185.1875 233.082031 184.855469 C 233.582031 184.523438 234.105469 184.242188 234.660156 184.015625 C 235.210938 183.785156 235.78125 183.613281 236.367188 183.496094 C 236.953125 183.378906 237.546875 183.320312 238.144531 183.320312 C 238.742188 183.320312 239.335938 183.378906 239.921875 183.496094 C 240.507812 183.613281 241.078125 183.785156 241.628906 184.015625 C 242.183594 184.242188 242.707031 184.523438 243.207031 184.855469 C 243.703125 185.1875 244.164062 185.566406 244.585938 185.988281 C 245.007812 186.414062 245.386719 186.875 245.71875 187.371094 C 246.050781 187.867188 246.332031 188.394531 246.5625 188.945312 C 246.789062 189.5 246.960938 190.066406 247.078125 190.65625 C 247.195312 191.242188 247.253906 191.832031 247.253906 192.433594 Z M 247.253906 192.433594 " fill-opacity="1" fill-rule="nonzero"/><path fill="#000000" d="M 229.007812 192.429688 C 229.007812 197.472656 233.078125 201.542969 238.125 201.542969 C 243.160156 201.542969 247.230469 197.472656 247.230469 192.429688 " fill-opacity="1" fill-rule="nonzero"/><path fill="#ffce00" d="M 220.148438 211.429688 C 220.621094 211.429688 221.121094 211.253906 221.5 210.863281 C 225.949219 206.417969 231.851562 203.972656 238.125 203.972656 L 238.136719 203.972656 C 244.410156 203.972656 250.316406 206.425781 254.738281 210.855469 C 255.480469 211.609375 256.695312 211.628906 257.453125 210.863281 C 258.207031 210.132812 258.21875 208.921875 257.464844 208.160156 C 252.324219 202.992188 245.445312 200.132812 238.144531 200.132812 L 238.132812 200.132812 C 230.828125 200.132812 223.964844 202.972656 218.773438 208.148438 C 218.046875 208.890625 218.046875 210.128906 218.773438 210.863281 C 219.152344 211.25 219.640625 211.429688 220.148438 211.429688 Z M 220.148438 211.429688 " fill-opacity="1" fill-rule="nonzero"/><path fill="#f9be03" d="M 218.449219 214.199219 C 218.449219 219.351562 205.570312 279.535156 189.671875 279.535156 C 173.773438 279.535156 160.890625 219.351562 160.890625 214.199219 C 160.890625 209.046875 173.773438 197.863281 189.671875 197.863281 C 205.570312 197.863281 218.449219 209.046875 218.449219 214.199219 Z M 218.449219 214.199219 " fill-opacity="1" fill-rule="nonzero"/><path fill="#f4e308" d="M 218.449219 214.199219 C 218.449219 219.351562 205.570312 261.644531 189.671875 261.644531 C 173.773438 261.644531 160.890625 219.351562 160.890625 214.199219 C 160.890625 209.046875 173.773438 197.863281 189.671875 197.863281 C 205.570312 197.863281 218.449219 209.046875 218.449219 214.199219 Z M 218.449219 214.199219 " fill-opacity="1" fill-rule="nonzero"/><g fill="#d32f23" fill-opacity="0.4196"><g transform="translate(22.619257, 110.115033)"><g><path d="M 46.53125 -30.5 C 46.882812 -30.5 47.164062 -30.378906 47.375 -30.140625 C 47.59375 -29.898438 47.671875 -29.566406 47.609375 -29.140625 L 46.078125 -16.46875 C 46.015625 -16.050781 45.859375 -15.71875 45.609375 -15.46875 C 45.367188 -15.226562 45.039062 -15.109375 44.625 -15.109375 L 41.90625 -15.109375 C 41.664062 -15.109375 41.484375 -14.957031 41.359375 -14.65625 L 39.734375 -1.359375 C 39.671875 -0.929688 39.519531 -0.597656 39.28125 -0.359375 C 39.039062 -0.117188 38.707031 0 38.28125 0 L 24.4375 0 C 24.019531 0 23.703125 -0.117188 23.484375 -0.359375 C 23.273438 -0.597656 23.203125 -0.929688 23.265625 -1.359375 L 24.890625 -14.65625 C 24.890625 -14.957031 24.769531 -15.109375 24.53125 -15.109375 L 2.078125 -15.109375 C 1.710938 -15.109375 1.425781 -15.226562 1.21875 -15.46875 C 1.007812 -15.71875 0.9375 -16.050781 1 -16.46875 L 2.171875 -26.515625 C 2.234375 -26.878906 2.382812 -27.425781 2.625 -28.15625 L 17.46875 -62.28125 C 17.769531 -63 18.3125 -63.359375 19.09375 -63.359375 L 33.9375 -63.359375 C 34.425781 -63.359375 34.757812 -63.222656 34.9375 -62.953125 C 35.113281 -62.679688 35.113281 -62.304688 34.9375 -61.828125 L 22.078125 -31.046875 C 21.898438 -30.679688 21.992188 -30.5 22.359375 -30.5 L 26.4375 -30.5 C 26.738281 -30.5 26.890625 -30.648438 26.890625 -30.953125 L 27.703125 -37.203125 C 27.753906 -37.617188 27.898438 -37.945312 28.140625 -38.1875 C 28.390625 -38.4375 28.722656 -38.5625 29.140625 -38.5625 L 43 -38.5625 C 43.414062 -38.5625 43.726562 -38.4375 43.9375 -38.1875 C 44.15625 -37.945312 44.234375 -37.617188 44.171875 -37.203125 L 43.359375 -30.953125 C 43.359375 -30.648438 43.507812 -30.5 43.8125 -30.5 Z M 46.53125 -30.5 "/></g></g></g><g fill="#d32f23" fill-opacity="0.4196"><g transform="translate(69.139719, 110.115033)"><g><path d="M 18.1875 1.09375 C 13.125 1.09375 9.113281 -0.398438 6.15625 -3.390625 C 3.195312 -6.378906 1.71875 -10.410156 1.71875 -15.484375 C 1.71875 -16.140625 1.78125 -17.191406 1.90625 -18.640625 L 5.15625 -44.71875 C 5.644531 -48.632812 6.835938 -52.085938 8.734375 -55.078125 C 10.640625 -58.066406 13.113281 -60.375 16.15625 -62 C 19.207031 -63.632812 22.570312 -64.453125 26.25 -64.453125 C 31.320312 -64.453125 35.347656 -62.957031 38.328125 -59.96875 C 41.316406 -56.976562 42.8125 -52.945312 42.8125 -47.875 C 42.8125 -47.21875 42.753906 -46.164062 42.640625 -44.71875 L 39.46875 -18.640625 C 38.976562 -14.722656 37.769531 -11.269531 35.84375 -8.28125 C 33.914062 -5.289062 31.425781 -2.976562 28.375 -1.34375 C 25.332031 0.28125 21.9375 1.09375 18.1875 1.09375 Z M 20 -13.484375 C 20.726562 -13.484375 21.332031 -13.859375 21.8125 -14.609375 C 22.289062 -15.367188 22.625 -16.382812 22.8125 -17.65625 L 26.25 -45.703125 L 26.34375 -46.796875 C 26.34375 -48.847656 25.707031 -49.875 24.4375 -49.875 C 23.769531 -49.875 23.195312 -49.492188 22.71875 -48.734375 C 22.238281 -47.984375 21.90625 -46.972656 21.71875 -45.703125 L 18.28125 -17.65625 L 18.1875 -16.5625 C 18.1875 -15.59375 18.335938 -14.835938 18.640625 -14.296875 C 18.941406 -13.753906 19.394531 -13.484375 20 -13.484375 Z M 20 -13.484375 "/></g></g></g><g fill="#d32f23" fill-opacity="0.4196"><g transform="translate(109.41522, 110.115033)"><g><path d="M 46.53125 -30.5 C 46.882812 -30.5 47.164062 -30.378906 47.375 -30.140625 C 47.59375 -29.898438 47.671875 -29.566406 47.609375 -29.140625 L 46.078125 -16.46875 C 46.015625 -16.050781 45.859375 -15.71875 45.609375 -15.46875 C 45.367188 -15.226562 45.039062 -15.109375 44.625 -15.109375 L 41.90625 -15.109375 C 41.664062 -15.109375 41.484375 -14.957031 41.359375 -14.65625 L 39.734375 -1.359375 C 39.671875 -0.929688 39.519531 -0.597656 39.28125 -0.359375 C 39.039062 -0.117188 38.707031 0 38.28125 0 L 24.4375 0 C 24.019531 0 23.703125 -0.117188 23.484375 -0.359375 C 23.273438 -0.597656 23.203125 -0.929688 23.265625 -1.359375 L 24.890625 -14.65625 C 24.890625 -14.957031 24.769531 -15.109375 24.53125 -15.109375 L 2.078125 -15.109375 C 1.710938 -15.109375 1.425781 -15.226562 1.21875 -15.46875 C 1.007812 -15.71875 0.9375 -16.050781 1 -16.46875 L 2.171875 -26.515625 C 2.234375 -26.878906 2.382812 -27.425781 2.625 -28.15625 L 17.46875 -62.28125 C 17.769531 -63 18.3125 -63.359375 19.09375 -63.359375 L 33.9375 -63.359375 C 34.425781 -63.359375 34.757812 -63.222656 34.9375 -62.953125 C 35.113281 -62.679688 35.113281 -62.304688 34.9375 -61.828125 L 22.078125 -31.046875 C 21.898438 -30.679688 21.992188 -30.5 22.359375 -30.5 L 26.4375 -30.5 C 26.738281 -30.5 26.890625 -30.648438 26.890625 -30.953125 L 27.703125 -37.203125 C 27.753906 -37.617188 27.898438 -37.945312 28.140625 -38.1875 C 28.390625 -38.4375 28.722656 -38.5625 29.140625 -38.5625 L 43 -38.5625 C 43.414062 -38.5625 43.726562 -38.4375 43.9375 -38.1875 C 44.15625 -37.945312 44.234375 -37.617188 44.171875 -37.203125 L 43.359375 -30.953125 C 43.359375 -30.648438 43.507812 -30.5 43.8125 -30.5 Z M 46.53125 -30.5 "/></g></g></g><g fill="#d32f23" fill-opacity="0.4196"><g transform="translate(155.935682, 110.115033)"><g/></g></g><g fill="#d32f23" fill-opacity="0.4196"><g transform="translate(173.493988, 110.115033)"><g><path d="M 3.4375 -18.5625 C 3.019531 -18.5625 2.703125 -18.679688 2.484375 -18.921875 C 2.273438 -19.160156 2.203125 -19.488281 2.265625 -19.90625 L 3.71875 -31.6875 C 3.769531 -32.101562 3.929688 -32.429688 4.203125 -32.671875 C 4.472656 -32.910156 4.789062 -33.03125 5.15625 -33.03125 L 29.515625 -33.03125 C 29.929688 -33.03125 30.242188 -32.910156 30.453125 -32.671875 C 30.671875 -32.429688 30.75 -32.101562 30.6875 -31.6875 L 29.234375 -19.90625 C 29.171875 -19.488281 29.003906 -19.160156 28.734375 -18.921875 C 28.460938 -18.679688 28.117188 -18.5625 27.703125 -18.5625 Z M 3.4375 -18.5625 "/></g></g></g><g fill="#d32f23" fill-opacity="0.4196"><g transform="translate(203.632732, 110.115033)"><g/></g></g><g fill="#d32f23" fill-opacity="0.4196"><g transform="translate(221.191037, 110.115033)"><g><path d="M 33.578125 -62 C 33.640625 -62.425781 33.804688 -62.757812 34.078125 -63 C 34.347656 -63.238281 34.695312 -63.359375 35.125 -63.359375 L 48.78125 -63.359375 C 49.207031 -63.359375 49.523438 -63.238281 49.734375 -63 C 49.953125 -62.757812 50.03125 -62.425781 49.96875 -62 L 42.453125 -1.359375 C 42.390625 -0.929688 42.238281 -0.597656 42 -0.359375 C 41.757812 -0.117188 41.425781 0 41 0 L 25.34375 0 C 24.625 0 24.203125 -0.390625 24.078125 -1.171875 L 20.640625 -28.96875 C 20.640625 -29.144531 20.578125 -29.234375 20.453125 -29.234375 C 20.335938 -29.234375 20.28125 -29.144531 20.28125 -28.96875 L 17.015625 -1.359375 C 16.953125 -0.929688 16.785156 -0.597656 16.515625 -0.359375 C 16.242188 -0.117188 15.925781 0 15.5625 0 L 1.8125 0 C 1.445312 0 1.160156 -0.117188 0.953125 -0.359375 C 0.742188 -0.597656 0.664062 -0.929688 0.71875 -1.359375 L 8.140625 -62 C 8.203125 -62.425781 8.367188 -62.757812 8.640625 -63 C 8.910156 -63.238281 9.226562 -63.359375 9.59375 -63.359375 L 25.078125 -63.359375 C 25.796875 -63.359375 26.21875 -62.96875 26.34375 -62.1875 L 29.875 -34.21875 C 29.875 -34.03125 29.929688 -33.96875 30.046875 -34.03125 C 30.171875 -34.09375 30.265625 -34.1875 30.328125 -34.3125 Z M 33.578125 -62 "/></g></g></g><g fill="#d32f23" fill-opacity="0.4196"><g transform="translate(267.530476, 110.115033)"><g><path d="M 19.375 0.71875 C 14 0.71875 9.769531 -0.742188 6.6875 -3.671875 C 3.613281 -6.597656 2.078125 -10.5625 2.078125 -15.5625 C 2.078125 -16.164062 2.140625 -17.191406 2.265625 -18.640625 L 5.515625 -44.71875 C 6.242188 -50.625 8.582031 -55.328125 12.53125 -58.828125 C 16.488281 -62.328125 21.421875 -64.078125 27.328125 -64.078125 C 32.640625 -64.078125 36.847656 -62.613281 39.953125 -59.6875 C 43.066406 -56.769531 44.625 -52.804688 44.625 -47.796875 C 44.625 -47.191406 44.5625 -46.164062 44.4375 -44.71875 L 41.28125 -18.640625 C 40.550781 -12.734375 38.191406 -8.03125 34.203125 -4.53125 C 30.222656 -1.03125 25.28125 0.71875 19.375 0.71875 Z M 21.1875 -13.84375 C 22.082031 -13.84375 22.847656 -14.203125 23.484375 -14.921875 C 24.117188 -15.648438 24.523438 -16.648438 24.703125 -17.921875 L 28.0625 -45.4375 C 28.175781 -46.707031 28.019531 -47.703125 27.59375 -48.421875 C 27.175781 -49.148438 26.515625 -49.515625 25.609375 -49.515625 C 24.648438 -49.515625 23.851562 -49.148438 23.21875 -48.421875 C 22.582031 -47.703125 22.203125 -46.707031 22.078125 -45.4375 L 18.734375 -17.921875 C 18.671875 -17.679688 18.640625 -17.347656 18.640625 -16.921875 C 18.640625 -15.960938 18.863281 -15.207031 19.3125 -14.65625 C 19.769531 -14.113281 20.394531 -13.84375 21.1875 -13.84375 Z M 21.1875 -13.84375 "/></g></g></g><g fill="#d32f23" fill-opacity="0.4196"><g transform="translate(309.978141, 110.115033)"><g><path d="M 46.984375 -63.359375 C 47.335938 -63.359375 47.617188 -63.238281 47.828125 -63 C 48.046875 -62.757812 48.125 -62.425781 48.0625 -62 L 46.609375 -50.140625 C 46.554688 -49.722656 46.40625 -49.390625 46.15625 -49.140625 C 45.914062 -48.898438 45.585938 -48.78125 45.171875 -48.78125 L 34.671875 -48.78125 C 34.367188 -48.78125 34.21875 -48.628906 34.21875 -48.328125 L 28.421875 -1.359375 C 28.359375 -0.929688 28.207031 -0.597656 27.96875 -0.359375 C 27.726562 -0.117188 27.394531 0 26.96875 0 L 13.125 0 C 12.695312 0 12.378906 -0.117188 12.171875 -0.359375 C 11.960938 -0.597656 11.890625 -0.929688 11.953125 -1.359375 L 17.734375 -48.328125 C 17.734375 -48.628906 17.582031 -48.78125 17.28125 -48.78125 L 7.15625 -48.78125 C 6.726562 -48.78125 6.410156 -48.898438 6.203125 -49.140625 C 5.992188 -49.390625 5.914062 -49.722656 5.96875 -50.140625 L 7.421875 -62 C 7.484375 -62.425781 7.648438 -62.757812 7.921875 -63 C 8.191406 -63.238281 8.539062 -63.359375 8.96875 -63.359375 Z M 46.984375 -63.359375 "/></g></g></g><g fill="#d32f23" fill-opacity="0.4196"><g transform="translate(353.783405, 110.115033)"><g/></g></g><g fill="#d32f23" fill-opacity="0.4196"><g transform="translate(371.341722, 110.115033)"><g><path d="M 41.8125 -50.140625 C 41.757812 -49.722656 41.59375 -49.390625 41.3125 -49.140625 C 41.039062 -48.898438 40.695312 -48.78125 40.28125 -48.78125 L 23.4375 -48.78125 C 23.132812 -48.78125 22.984375 -48.628906 22.984375 -48.328125 L 21.90625 -39.46875 C 21.78125 -39.164062 21.898438 -39.015625 22.265625 -39.015625 L 31.046875 -39.015625 C 31.472656 -39.015625 31.789062 -38.890625 32 -38.640625 C 32.207031 -38.398438 32.28125 -38.070312 32.21875 -37.65625 L 30.78125 -25.796875 C 30.59375 -24.890625 30.078125 -24.4375 29.234375 -24.4375 L 20.453125 -24.4375 C 20.148438 -24.4375 20 -24.285156 20 -23.984375 L 17.203125 -1.359375 C 17.140625 -0.929688 16.972656 -0.597656 16.703125 -0.359375 C 16.429688 -0.117188 16.113281 0 15.75 0 L 1.8125 0 C 1.445312 0 1.160156 -0.117188 0.953125 -0.359375 C 0.742188 -0.597656 0.664062 -0.929688 0.71875 -1.359375 L 8.140625 -62 C 8.203125 -62.425781 8.367188 -62.757812 8.640625 -63 C 8.910156 -63.238281 9.226562 -63.359375 9.59375 -63.359375 L 42.09375 -63.359375 C 42.507812 -63.359375 42.820312 -63.238281 43.03125 -63 C 43.25 -62.757812 43.328125 -62.425781 43.265625 -62 Z M 41.8125 -50.140625 "/></g></g></g><g fill="#d32f23" fill-opacity="0.4196"><g transform="translate(409.26405, 110.115033)"><g><path d="M 19.375 0.71875 C 14 0.71875 9.769531 -0.742188 6.6875 -3.671875 C 3.613281 -6.597656 2.078125 -10.5625 2.078125 -15.5625 C 2.078125 -16.164062 2.140625 -17.191406 2.265625 -18.640625 L 5.515625 -44.71875 C 6.242188 -50.625 8.582031 -55.328125 12.53125 -58.828125 C 16.488281 -62.328125 21.421875 -64.078125 27.328125 -64.078125 C 32.640625 -64.078125 36.847656 -62.613281 39.953125 -59.6875 C 43.066406 -56.769531 44.625 -52.804688 44.625 -47.796875 C 44.625 -47.191406 44.5625 -46.164062 44.4375 -44.71875 L 41.28125 -18.640625 C 40.550781 -12.734375 38.191406 -8.03125 34.203125 -4.53125 C 30.222656 -1.03125 25.28125 0.71875 19.375 0.71875 Z M 21.1875 -13.84375 C 22.082031 -13.84375 22.847656 -14.203125 23.484375 -14.921875 C 24.117188 -15.648438 24.523438 -16.648438 24.703125 -17.921875 L 28.0625 -45.4375 C 28.175781 -46.707031 28.019531 -47.703125 27.59375 -48.421875 C 27.175781 -49.148438 26.515625 -49.515625 25.609375 -49.515625 C 24.648438 -49.515625 23.851562 -49.148438 23.21875 -48.421875 C 22.582031 -47.703125 22.203125 -46.707031 22.078125 -45.4375 L 18.734375 -17.921875 C 18.671875 -17.679688 18.640625 -17.347656 18.640625 -16.921875 C 18.640625 -15.960938 18.863281 -15.207031 19.3125 -14.65625 C 19.769531 -14.113281 20.394531 -13.84375 21.1875 -13.84375 Z M 21.1875 -13.84375 "/></g></g></g><g fill="#d32f23" fill-opacity="0.4196"><g transform="translate(451.71169, 110.115033)"><g><path d="M 19.28125 0.71875 C 14.09375 0.71875 9.988281 -0.753906 6.96875 -3.703125 C 3.945312 -6.660156 2.4375 -10.644531 2.4375 -15.65625 C 2.4375 -16.320312 2.5 -17.378906 2.625 -18.828125 L 7.96875 -62 C 8.03125 -62.425781 8.195312 -62.757812 8.46875 -63 C 8.738281 -63.238281 9.050781 -63.359375 9.40625 -63.359375 L 23.359375 -63.359375 C 23.710938 -63.359375 23.992188 -63.238281 24.203125 -63 C 24.421875 -62.757812 24.5 -62.425781 24.4375 -62 L 19.015625 -17.203125 C 18.890625 -16.171875 19.003906 -15.351562 19.359375 -14.75 C 19.722656 -14.144531 20.300781 -13.84375 21.09375 -13.84375 C 21.875 -13.84375 22.519531 -14.144531 23.03125 -14.75 C 23.550781 -15.351562 23.867188 -16.171875 23.984375 -17.203125 L 29.515625 -62 C 29.566406 -62.425781 29.710938 -62.757812 29.953125 -63 C 30.203125 -63.238281 30.535156 -63.359375 30.953125 -63.359375 L 44.8125 -63.359375 C 45.226562 -63.359375 45.539062 -63.238281 45.75 -63 C 45.96875 -62.757812 46.046875 -62.425781 45.984375 -62 L 40.640625 -18.828125 C 40.160156 -14.960938 38.953125 -11.550781 37.015625 -8.59375 C 35.085938 -5.632812 32.582031 -3.34375 29.5 -1.71875 C 26.425781 -0.09375 23.019531 0.71875 19.28125 0.71875 Z M 19.28125 0.71875 "/></g></g></g><g fill="#d32f23" fill-opacity="0.4196"><g transform="translate(493.978318, 110.115033)"><g><path d="M 33.578125 -62 C 33.640625 -62.425781 33.804688 -62.757812 34.078125 -63 C 34.347656 -63.238281 34.695312 -63.359375 35.125 -63.359375 L 48.78125 -63.359375 C 49.207031 -63.359375 49.523438 -63.238281 49.734375 -63 C 49.953125 -62.757812 50.03125 -62.425781 49.96875 -62 L 42.453125 -1.359375 C 42.390625 -0.929688 42.238281 -0.597656 42 -0.359375 C 41.757812 -0.117188 41.425781 0 41 0 L 25.34375 0 C 24.625 0 24.203125 -0.390625 24.078125 -1.171875 L 20.640625 -28.96875 C 20.640625 -29.144531 20.578125 -29.234375 20.453125 -29.234375 C 20.335938 -29.234375 20.28125 -29.144531 20.28125 -28.96875 L 17.015625 -1.359375 C 16.953125 -0.929688 16.785156 -0.597656 16.515625 -0.359375 C 16.242188 -0.117188 15.925781 0 15.5625 0 L 1.8125 0 C 1.445312 0 1.160156 -0.117188 0.953125 -0.359375 C 0.742188 -0.597656 0.664062 -0.929688 0.71875 -1.359375 L 8.140625 -62 C 8.203125 -62.425781 8.367188 -62.757812 8.640625 -63 C 8.910156 -63.238281 9.226562 -63.359375 9.59375 -63.359375 L 25.078125 -63.359375 C 25.796875 -63.359375 26.21875 -62.96875 26.34375 -62.1875 L 29.875 -34.21875 C 29.875 -34.03125 29.929688 -33.96875 30.046875 -34.03125 C 30.171875 -34.09375 30.265625 -34.1875 30.328125 -34.3125 Z M 33.578125 -62 "/></g></g></g><g fill="#d32f23" fill-opacity="0.4196"><g transform="translate(540.317769, 110.115033)"><g><path d="M 1.8125 0 C 1.445312 0 1.160156 -0.117188 0.953125 -0.359375 C 0.742188 -0.597656 0.664062 -0.929688 0.71875 -1.359375 L 8.140625 -62 C 8.203125 -62.425781 8.367188 -62.757812 8.640625 -63 C 8.910156 -63.238281 9.226562 -63.359375 9.59375 -63.359375 L 26.890625 -63.359375 C 32.253906 -63.359375 36.519531 -61.953125 39.6875 -59.140625 C 42.851562 -56.335938 44.4375 -52.582031 44.4375 -47.875 C 44.4375 -47.332031 44.378906 -46.457031 44.265625 -45.25 L 40.90625 -18.109375 C 40.488281 -14.546875 39.296875 -11.390625 37.328125 -8.640625 C 35.367188 -5.898438 32.804688 -3.773438 29.640625 -2.265625 C 26.472656 -0.753906 22.957031 0 19.09375 0 Z M 18.921875 -15.03125 C 18.796875 -14.726562 18.914062 -14.578125 19.28125 -14.578125 L 20.546875 -14.65625 C 21.515625 -14.71875 22.375 -15.171875 23.125 -16.015625 C 23.882812 -16.859375 24.382812 -17.945312 24.625 -19.28125 L 27.609375 -44.171875 L 27.703125 -45.171875 C 27.703125 -46.316406 27.425781 -47.203125 26.875 -47.828125 C 26.332031 -48.460938 25.609375 -48.78125 24.703125 -48.78125 L 23.4375 -48.78125 C 23.132812 -48.78125 22.984375 -48.628906 22.984375 -48.328125 Z M 18.921875 -15.03125 "/></g></g></g><g fill="#ff3847" fill-opacity="1"><g transform="translate(19.928758, 107.692497)"><g><path d="M 46.53125 -30.5 C 46.882812 -30.5 47.164062 -30.378906 47.375 -30.140625 C 47.59375 -29.898438 47.671875 -29.566406 47.609375 -29.140625 L 46.078125 -16.46875 C 46.015625 -16.050781 45.859375 -15.71875 45.609375 -15.46875 C 45.367188 -15.226562 45.039062 -15.109375 44.625 -15.109375 L 41.90625 -15.109375 C 41.664062 -15.109375 41.484375 -14.957031 41.359375 -14.65625 L 39.734375 -1.359375 C 39.671875 -0.929688 39.519531 -0.597656 39.28125 -0.359375 C 39.039062 -0.117188 38.707031 0 38.28125 0 L 24.4375 0 C 24.019531 0 23.703125 -0.117188 23.484375 -0.359375 C 23.273438 -0.597656 23.203125 -0.929688 23.265625 -1.359375 L 24.890625 -14.65625 C 24.890625 -14.957031 24.769531 -15.109375 24.53125 -15.109375 L 2.078125 -15.109375 C 1.710938 -15.109375 1.425781 -15.226562 1.21875 -15.46875 C 1.007812 -15.71875 0.9375 -16.050781 1 -16.46875 L 2.171875 -26.515625 C 2.234375 -26.878906 2.382812 -27.425781 2.625 -28.15625 L 17.46875 -62.28125 C 17.769531 -63 18.3125 -63.359375 19.09375 -63.359375 L 33.9375 -63.359375 C 34.425781 -63.359375 34.757812 -63.222656 34.9375 -62.953125 C 35.113281 -62.679688 35.113281 -62.304688 34.9375 -61.828125 L 22.078125 -31.046875 C 21.898438 -30.679688 21.992188 -30.5 22.359375 -30.5 L 26.4375 -30.5 C 26.738281 -30.5 26.890625 -30.648438 26.890625 -30.953125 L 27.703125 -37.203125 C 27.753906 -37.617188 27.898438 -37.945312 28.140625 -38.1875 C 28.390625 -38.4375 28.722656 -38.5625 29.140625 -38.5625 L 43 -38.5625 C 43.414062 -38.5625 43.726562 -38.4375 43.9375 -38.1875 C 44.15625 -37.945312 44.234375 -37.617188 44.171875 -37.203125 L 43.359375 -30.953125 C 43.359375 -30.648438 43.507812 -30.5 43.8125 -30.5 Z M 46.53125 -30.5 "/></g></g></g><g fill="#ff3847" fill-opacity="1"><g transform="translate(66.44922, 107.692497)"><g><path d="M 18.1875 1.09375 C 13.125 1.09375 9.113281 -0.398438 6.15625 -3.390625 C 3.195312 -6.378906 1.71875 -10.410156 1.71875 -15.484375 C 1.71875 -16.140625 1.78125 -17.191406 1.90625 -18.640625 L 5.15625 -44.71875 C 5.644531 -48.632812 6.835938 -52.085938 8.734375 -55.078125 C 10.640625 -58.066406 13.113281 -60.375 16.15625 -62 C 19.207031 -63.632812 22.570312 -64.453125 26.25 -64.453125 C 31.320312 -64.453125 35.347656 -62.957031 38.328125 -59.96875 C 41.316406 -56.976562 42.8125 -52.945312 42.8125 -47.875 C 42.8125 -47.21875 42.753906 -46.164062 42.640625 -44.71875 L 39.46875 -18.640625 C 38.976562 -14.722656 37.769531 -11.269531 35.84375 -8.28125 C 33.914062 -5.289062 31.425781 -2.976562 28.375 -1.34375 C 25.332031 0.28125 21.9375 1.09375 18.1875 1.09375 Z M 20 -13.484375 C 20.726562 -13.484375 21.332031 -13.859375 21.8125 -14.609375 C 22.289062 -15.367188 22.625 -16.382812 22.8125 -17.65625 L 26.25 -45.703125 L 26.34375 -46.796875 C 26.34375 -48.847656 25.707031 -49.875 24.4375 -49.875 C 23.769531 -49.875 23.195312 -49.492188 22.71875 -48.734375 C 22.238281 -47.984375 21.90625 -46.972656 21.71875 -45.703125 L 18.28125 -17.65625 L 18.1875 -16.5625 C 18.1875 -15.59375 18.335938 -14.835938 18.640625 -14.296875 C 18.941406 -13.753906 19.394531 -13.484375 20 -13.484375 Z M 20 -13.484375 "/></g></g></g><g fill="#ff3847" fill-opacity="1"><g transform="translate(106.724721, 107.692497)"><g><path d="M 46.53125 -30.5 C 46.882812 -30.5 47.164062 -30.378906 47.375 -30.140625 C 47.59375 -29.898438 47.671875 -29.566406 47.609375 -29.140625 L 46.078125 -16.46875 C 46.015625 -16.050781 45.859375 -15.71875 45.609375 -15.46875 C 45.367188 -15.226562 45.039062 -15.109375 44.625 -15.109375 L 41.90625 -15.109375 C 41.664062 -15.109375 41.484375 -14.957031 41.359375 -14.65625 L 39.734375 -1.359375 C 39.671875 -0.929688 39.519531 -0.597656 39.28125 -0.359375 C 39.039062 -0.117188 38.707031 0 38.28125 0 L 24.4375 0 C 24.019531 0 23.703125 -0.117188 23.484375 -0.359375 C 23.273438 -0.597656 23.203125 -0.929688 23.265625 -1.359375 L 24.890625 -14.65625 C 24.890625 -14.957031 24.769531 -15.109375 24.53125 -15.109375 L 2.078125 -15.109375 C 1.710938 -15.109375 1.425781 -15.226562 1.21875 -15.46875 C 1.007812 -15.71875 0.9375 -16.050781 1 -16.46875 L 2.171875 -26.515625 C 2.234375 -26.878906 2.382812 -27.425781 2.625 -28.15625 L 17.46875 -62.28125 C 17.769531 -63 18.3125 -63.359375 19.09375 -63.359375 L 33.9375 -63.359375 C 34.425781 -63.359375 34.757812 -63.222656 34.9375 -62.953125 C 35.113281 -62.679688 35.113281 -62.304688 34.9375 -61.828125 L 22.078125 -31.046875 C 21.898438 -30.679688 21.992188 -30.5 22.359375 -30.5 L 26.4375 -30.5 C 26.738281 -30.5 26.890625 -30.648438 26.890625 -30.953125 L 27.703125 -37.203125 C 27.753906 -37.617188 27.898438 -37.945312 28.140625 -38.1875 C 28.390625 -38.4375 28.722656 -38.5625 29.140625 -38.5625 L 43 -38.5625 C 43.414062 -38.5625 43.726562 -38.4375 43.9375 -38.1875 C 44.15625 -37.945312 44.234375 -37.617188 44.171875 -37.203125 L 43.359375 -30.953125 C 43.359375 -30.648438 43.507812 -30.5 43.8125 -30.5 Z M 46.53125 -30.5 "/></g></g></g><g fill="#ff3847" fill-opacity="1"><g transform="translate(153.245183, 107.692497)"><g/></g></g><g fill="#ff3847" fill-opacity="1"><g transform="translate(170.803489, 107.692497)"><g><path d="M 3.4375 -18.5625 C 3.019531 -18.5625 2.703125 -18.679688 2.484375 -18.921875 C 2.273438 -19.160156 2.203125 -19.488281 2.265625 -19.90625 L 3.71875 -31.6875 C 3.769531 -32.101562 3.929688 -32.429688 4.203125 -32.671875 C 4.472656 -32.910156 4.789062 -33.03125 5.15625 -33.03125 L 29.515625 -33.03125 C 29.929688 -33.03125 30.242188 -32.910156 30.453125 -32.671875 C 30.671875 -32.429688 30.75 -32.101562 30.6875 -31.6875 L 29.234375 -19.90625 C 29.171875 -19.488281 29.003906 -19.160156 28.734375 -18.921875 C 28.460938 -18.679688 28.117188 -18.5625 27.703125 -18.5625 Z M 3.4375 -18.5625 "/></g></g></g><g fill="#ff3847" fill-opacity="1"><g transform="translate(200.942233, 107.692497)"><g/></g></g><g fill="#ff3847" fill-opacity="1"><g transform="translate(218.500538, 107.692497)"><g><path d="M 33.578125 -62 C 33.640625 -62.425781 33.804688 -62.757812 34.078125 -63 C 34.347656 -63.238281 34.695312 -63.359375 35.125 -63.359375 L 48.78125 -63.359375 C 49.207031 -63.359375 49.523438 -63.238281 49.734375 -63 C 49.953125 -62.757812 50.03125 -62.425781 49.96875 -62 L 42.453125 -1.359375 C 42.390625 -0.929688 42.238281 -0.597656 42 -0.359375 C 41.757812 -0.117188 41.425781 0 41 0 L 25.34375 0 C 24.625 0 24.203125 -0.390625 24.078125 -1.171875 L 20.640625 -28.96875 C 20.640625 -29.144531 20.578125 -29.234375 20.453125 -29.234375 C 20.335938 -29.234375 20.28125 -29.144531 20.28125 -28.96875 L 17.015625 -1.359375 C 16.953125 -0.929688 16.785156 -0.597656 16.515625 -0.359375 C 16.242188 -0.117188 15.925781 0 15.5625 0 L 1.8125 0 C 1.445312 0 1.160156 -0.117188 0.953125 -0.359375 C 0.742188 -0.597656 0.664062 -0.929688 0.71875 -1.359375 L 8.140625 -62 C 8.203125 -62.425781 8.367188 -62.757812 8.640625 -63 C 8.910156 -63.238281 9.226562 -63.359375 9.59375 -63.359375 L 25.078125 -63.359375 C 25.796875 -63.359375 26.21875 -62.96875 26.34375 -62.1875 L 29.875 -34.21875 C 29.875 -34.03125 29.929688 -33.96875 30.046875 -34.03125 C 30.171875 -34.09375 30.265625 -34.1875 30.328125 -34.3125 Z M 33.578125 -62 "/></g></g></g><g fill="#ff3847" fill-opacity="1"><g transform="translate(264.839977, 107.692497)"><g><path d="M 19.375 0.71875 C 14 0.71875 9.769531 -0.742188 6.6875 -3.671875 C 3.613281 -6.597656 2.078125 -10.5625 2.078125 -15.5625 C 2.078125 -16.164062 2.140625 -17.191406 2.265625 -18.640625 L 5.515625 -44.71875 C 6.242188 -50.625 8.582031 -55.328125 12.53125 -58.828125 C 16.488281 -62.328125 21.421875 -64.078125 27.328125 -64.078125 C 32.640625 -64.078125 36.847656 -62.613281 39.953125 -59.6875 C 43.066406 -56.769531 44.625 -52.804688 44.625 -47.796875 C 44.625 -47.191406 44.5625 -46.164062 44.4375 -44.71875 L 41.28125 -18.640625 C 40.550781 -12.734375 38.191406 -8.03125 34.203125 -4.53125 C 30.222656 -1.03125 25.28125 0.71875 19.375 0.71875 Z M 21.1875 -13.84375 C 22.082031 -13.84375 22.847656 -14.203125 23.484375 -14.921875 C 24.117188 -15.648438 24.523438 -16.648438 24.703125 -17.921875 L 28.0625 -45.4375 C 28.175781 -46.707031 28.019531 -47.703125 27.59375 -48.421875 C 27.175781 -49.148438 26.515625 -49.515625 25.609375 -49.515625 C 24.648438 -49.515625 23.851562 -49.148438 23.21875 -48.421875 C 22.582031 -47.703125 22.203125 -46.707031 22.078125 -45.4375 L 18.734375 -17.921875 C 18.671875 -17.679688 18.640625 -17.347656 18.640625 -16.921875 C 18.640625 -15.960938 18.863281 -15.207031 19.3125 -14.65625 C 19.769531 -14.113281 20.394531 -13.84375 21.1875 -13.84375 Z M 21.1875 -13.84375 "/></g></g></g><g fill="#ff3847" fill-opacity="1"><g transform="translate(307.287642, 107.692497)"><g><path d="M 46.984375 -63.359375 C 47.335938 -63.359375 47.617188 -63.238281 47.828125 -63 C 48.046875 -62.757812 48.125 -62.425781 48.0625 -62 L 46.609375 -50.140625 C 46.554688 -49.722656 46.40625 -49.390625 46.15625 -49.140625 C 45.914062 -48.898438 45.585938 -48.78125 45.171875 -48.78125 L 34.671875 -48.78125 C 34.367188 -48.78125 34.21875 -48.628906 34.21875 -48.328125 L 28.421875 -1.359375 C 28.359375 -0.929688 28.207031 -0.597656 27.96875 -0.359375 C 27.726562 -0.117188 27.394531 0 26.96875 0 L 13.125 0 C 12.695312 0 12.378906 -0.117188 12.171875 -0.359375 C 11.960938 -0.597656 11.890625 -0.929688 11.953125 -1.359375 L 17.734375 -48.328125 C 17.734375 -48.628906 17.582031 -48.78125 17.28125 -48.78125 L 7.15625 -48.78125 C 6.726562 -48.78125 6.410156 -48.898438 6.203125 -49.140625 C 5.992188 -49.390625 5.914062 -49.722656 5.96875 -50.140625 L 7.421875 -62 C 7.484375 -62.425781 7.648438 -62.757812 7.921875 -63 C 8.191406 -63.238281 8.539062 -63.359375 8.96875 -63.359375 Z M 46.984375 -63.359375 "/></g></g></g><g fill="#ff3847" fill-opacity="1"><g transform="translate(351.092906, 107.692497)"><g/></g></g><g fill="#ff3847" fill-opacity="1"><g transform="translate(368.651223, 107.692497)"><g><path d="M 41.8125 -50.140625 C 41.757812 -49.722656 41.59375 -49.390625 41.3125 -49.140625 C 41.039062 -48.898438 40.695312 -48.78125 40.28125 -48.78125 L 23.4375 -48.78125 C 23.132812 -48.78125 22.984375 -48.628906 22.984375 -48.328125 L 21.90625 -39.46875 C 21.78125 -39.164062 21.898438 -39.015625 22.265625 -39.015625 L 31.046875 -39.015625 C 31.472656 -39.015625 31.789062 -38.890625 32 -38.640625 C 32.207031 -38.398438 32.28125 -38.070312 32.21875 -37.65625 L 30.78125 -25.796875 C 30.59375 -24.890625 30.078125 -24.4375 29.234375 -24.4375 L 20.453125 -24.4375 C 20.148438 -24.4375 20 -24.285156 20 -23.984375 L 17.203125 -1.359375 C 17.140625 -0.929688 16.972656 -0.597656 16.703125 -0.359375 C 16.429688 -0.117188 16.113281 0 15.75 0 L 1.8125 0 C 1.445312 0 1.160156 -0.117188 0.953125 -0.359375 C 0.742188 -0.597656 0.664062 -0.929688 0.71875 -1.359375 L 8.140625 -62 C 8.203125 -62.425781 8.367188 -62.757812 8.640625 -63 C 8.910156 -63.238281 9.226562 -63.359375 9.59375 -63.359375 L 42.09375 -63.359375 C 42.507812 -63.359375 42.820312 -63.238281 43.03125 -63 C 43.25 -62.757812 43.328125 -62.425781 43.265625 -62 Z M 41.8125 -50.140625 "/></g></g></g><g fill="#ff3847" fill-opacity="1"><g transform="translate(406.573551, 107.692497)"><g><path d="M 19.375 0.71875 C 14 0.71875 9.769531 -0.742188 6.6875 -3.671875 C 3.613281 -6.597656 2.078125 -10.5625 2.078125 -15.5625 C 2.078125 -16.164062 2.140625 -17.191406 2.265625 -18.640625 L 5.515625 -44.71875 C 6.242188 -50.625 8.582031 -55.328125 12.53125 -58.828125 C 16.488281 -62.328125 21.421875 -64.078125 27.328125 -64.078125 C 32.640625 -64.078125 36.847656 -62.613281 39.953125 -59.6875 C 43.066406 -56.769531 44.625 -52.804688 44.625 -47.796875 C 44.625 -47.191406 44.5625 -46.164062 44.4375 -44.71875 L 41.28125 -18.640625 C 40.550781 -12.734375 38.191406 -8.03125 34.203125 -4.53125 C 30.222656 -1.03125 25.28125 0.71875 19.375 0.71875 Z M 21.1875 -13.84375 C 22.082031 -13.84375 22.847656 -14.203125 23.484375 -14.921875 C 24.117188 -15.648438 24.523438 -16.648438 24.703125 -17.921875 L 28.0625 -45.4375 C 28.175781 -46.707031 28.019531 -47.703125 27.59375 -48.421875 C 27.175781 -49.148438 26.515625 -49.515625 25.609375 -49.515625 C 24.648438 -49.515625 23.851562 -49.148438 23.21875 -48.421875 C 22.582031 -47.703125 22.203125 -46.707031 22.078125 -45.4375 L 18.734375 -17.921875 C 18.671875 -17.679688 18.640625 -17.347656 18.640625 -16.921875 C 18.640625 -15.960938 18.863281 -15.207031 19.3125 -14.65625 C 19.769531 -14.113281 20.394531 -13.84375 21.1875 -13.84375 Z M 21.1875 -13.84375 "/></g></g></g><g fill="#ff3847" fill-opacity="1"><g transform="translate(449.021191, 107.692497)"><g><path d="M 19.28125 0.71875 C 14.09375 0.71875 9.988281 -0.753906 6.96875 -3.703125 C 3.945312 -6.660156 2.4375 -10.644531 2.4375 -15.65625 C 2.4375 -16.320312 2.5 -17.378906 2.625 -18.828125 L 7.96875 -62 C 8.03125 -62.425781 8.195312 -62.757812 8.46875 -63 C 8.738281 -63.238281 9.050781 -63.359375 9.40625 -63.359375 L 23.359375 -63.359375 C 23.710938 -63.359375 23.992188 -63.238281 24.203125 -63 C 24.421875 -62.757812 24.5 -62.425781 24.4375 -62 L 19.015625 -17.203125 C 18.890625 -16.171875 19.003906 -15.351562 19.359375 -14.75 C 19.722656 -14.144531 20.300781 -13.84375 21.09375 -13.84375 C 21.875 -13.84375 22.519531 -14.144531 23.03125 -14.75 C 23.550781 -15.351562 23.867188 -16.171875 23.984375 -17.203125 L 29.515625 -62 C 29.566406 -62.425781 29.710938 -62.757812 29.953125 -63 C 30.203125 -63.238281 30.535156 -63.359375 30.953125 -63.359375 L 44.8125 -63.359375 C 45.226562 -63.359375 45.539062 -63.238281 45.75 -63 C 45.96875 -62.757812 46.046875 -62.425781 45.984375 -62 L 40.640625 -18.828125 C 40.160156 -14.960938 38.953125 -11.550781 37.015625 -8.59375 C 35.085938 -5.632812 32.582031 -3.34375 29.5 -1.71875 C 26.425781 -0.09375 23.019531 0.71875 19.28125 0.71875 Z M 19.28125 0.71875 "/></g></g></g><g fill="#ff3847" fill-opacity="1"><g transform="translate(491.287819, 107.692497)"><g><path d="M 33.578125 -62 C 33.640625 -62.425781 33.804688 -62.757812 34.078125 -63 C 34.347656 -63.238281 34.695312 -63.359375 35.125 -63.359375 L 48.78125 -63.359375 C 49.207031 -63.359375 49.523438 -63.238281 49.734375 -63 C 49.953125 -62.757812 50.03125 -62.425781 49.96875 -62 L 42.453125 -1.359375 C 42.390625 -0.929688 42.238281 -0.597656 42 -0.359375 C 41.757812 -0.117188 41.425781 0 41 0 L 25.34375 0 C 24.625 0 24.203125 -0.390625 24.078125 -1.171875 L 20.640625 -28.96875 C 20.640625 -29.144531 20.578125 -29.234375 20.453125 -29.234375 C 20.335938 -29.234375 20.28125 -29.144531 20.28125 -28.96875 L 17.015625 -1.359375 C 16.953125 -0.929688 16.785156 -0.597656 16.515625 -0.359375 C 16.242188 -0.117188 15.925781 0 15.5625 0 L 1.8125 0 C 1.445312 0 1.160156 -0.117188 0.953125 -0.359375 C 0.742188 -0.597656 0.664062 -0.929688 0.71875 -1.359375 L 8.140625 -62 C 8.203125 -62.425781 8.367188 -62.757812 8.640625 -63 C 8.910156 -63.238281 9.226562 -63.359375 9.59375 -63.359375 L 25.078125 -63.359375 C 25.796875 -63.359375 26.21875 -62.96875 26.34375 -62.1875 L 29.875 -34.21875 C 29.875 -34.03125 29.929688 -33.96875 30.046875 -34.03125 C 30.171875 -34.09375 30.265625 -34.1875 30.328125 -34.3125 Z M 33.578125 -62 "/></g></g></g><g fill="#ff3847" fill-opacity="1"><g transform="translate(537.62727, 107.692497)"><g><path d="M 1.8125 0 C 1.445312 0 1.160156 -0.117188 0.953125 -0.359375 C 0.742188 -0.597656 0.664062 -0.929688 0.71875 -1.359375 L 8.140625 -62 C 8.203125 -62.425781 8.367188 -62.757812 8.640625 -63 C 8.910156 -63.238281 9.226562 -63.359375 9.59375 -63.359375 L 26.890625 -63.359375 C 32.253906 -63.359375 36.519531 -61.953125 39.6875 -59.140625 C 42.851562 -56.335938 44.4375 -52.582031 44.4375 -47.875 C 44.4375 -47.332031 44.378906 -46.457031 44.265625 -45.25 L 40.90625 -18.109375 C 40.488281 -14.546875 39.296875 -11.390625 37.328125 -8.640625 C 35.367188 -5.898438 32.804688 -3.773438 29.640625 -2.265625 C 26.472656 -0.753906 22.957031 0 19.09375 0 Z M 18.921875 -15.03125 C 18.796875 -14.726562 18.914062 -14.578125 19.28125 -14.578125 L 20.546875 -14.65625 C 21.515625 -14.71875 22.375 -15.171875 23.125 -16.015625 C 23.882812 -16.859375 24.382812 -17.945312 24.625 -19.28125 L 27.609375 -44.171875 L 27.703125 -45.171875 C 27.703125 -46.316406 27.425781 -47.203125 26.875 -47.828125 C 26.332031 -48.460938 25.609375 -48.78125 24.703125 -48.78125 L 23.4375 -48.78125 C 23.132812 -48.78125 22.984375 -48.628906 22.984375 -48.328125 Z M 18.921875 -15.03125 "/></g></g></g><g fill="#000000" fill-opacity="1"><g transform="translate(326.292483, 241.340332)"><g><path d="M 21.878906 -24.871094 L 21.878906 -27.945312 L 0.4375 -27.945312 L 0.4375 -24.871094 L 9.542969 -24.871094 L 9.542969 0 L 12.734375 0 L 12.734375 -24.871094 Z M 21.878906 -24.871094 "/></g></g></g><g fill="#000000" fill-opacity="1"><g transform="translate(348.567841, 241.340332)"><g><path d="M 15.289062 -21.160156 C 11.417969 -21.117188 8.542969 -19.601562 7.105469 -16.328125 L 7.105469 -29.621094 L 3.992188 -29.621094 L 3.992188 0 L 7.105469 0 L 7.105469 -10.339844 C 7.105469 -14.851562 9.742188 -18.003906 14.210938 -18.042969 C 17.925781 -18.042969 20.160156 -15.847656 20.160156 -12.136719 L 20.160156 0 L 23.273438 0 L 23.273438 -12.972656 C 23.273438 -18.042969 20.320312 -21.160156 15.289062 -21.160156 Z M 15.289062 -21.160156 "/></g></g></g><g fill="#000000" fill-opacity="1"><g transform="translate(374.994875, 241.340332)"><g><path d="M 12.097656 -21.117188 C 5.988281 -21.117188 1.675781 -16.765625 1.675781 -10.5 C 1.675781 -4.230469 5.949219 0.121094 12.136719 0.121094 C 15.648438 0.121094 18.601562 -1.15625 20.597656 -3.394531 L 18.882812 -5.230469 C 17.246094 -3.511719 14.96875 -2.59375 12.375 -2.59375 C 8.304688 -2.59375 5.308594 -5.191406 4.75 -9.300781 L 21.917969 -9.300781 C 22.234375 -16.449219 18.882812 -21.160156 12.097656 -21.117188 Z M 4.75 -11.855469 C 5.230469 -15.847656 8.105469 -18.445312 12.097656 -18.445312 C 16.207031 -18.445312 18.921875 -15.890625 19.121094 -11.855469 Z M 4.75 -11.855469 "/></g></g></g><g fill="#000000" fill-opacity="1"><g transform="translate(398.46783, 241.340332)"><g/></g></g><g fill="#000000" fill-opacity="1"><g transform="translate(409.405903, 241.340332)"><g><path d="M 11.539062 -10.617188 L 18.722656 0 L 22.4375 0 L 13.734375 -12.894531 L 21.597656 -21.039062 L 17.925781 -21.039062 L 7.105469 -10.261719 L 7.105469 -29.621094 L 3.992188 -29.621094 L 3.992188 0 L 7.105469 0 L 7.105469 -6.027344 Z M 11.539062 -10.617188 "/></g></g></g><g fill="#000000" fill-opacity="1"><g transform="translate(432.280053, 241.340332)"><g><path d="M 5.308594 -29.222656 C 4.152344 -29.222656 3.273438 -28.304688 3.273438 -27.066406 C 3.273438 -25.828125 4.152344 -24.910156 5.308594 -24.910156 C 6.46875 -24.910156 7.34375 -25.828125 7.34375 -27.066406 C 7.34375 -28.304688 6.46875 -29.222656 5.308594 -29.222656 Z M 6.867188 0 L 6.867188 -21.039062 L 3.792969 -21.039062 L 3.792969 0 Z M 6.867188 0 "/></g></g></g><g fill="#000000" fill-opacity="1"><g transform="translate(442.93869, 241.340332)"><g><path d="M 23.113281 -29.621094 L 20 -29.621094 L 20 -16.488281 C 18.445312 -19.480469 15.53125 -21.199219 11.777344 -21.199219 C 5.828125 -21.199219 1.675781 -16.847656 1.675781 -10.539062 C 1.675781 -4.273438 5.828125 0.160156 11.816406 0.160156 C 15.570312 0.160156 18.445312 -1.558594 20 -4.511719 L 20 0 L 23.113281 0 Z M 12.414062 -2.636719 C 7.945312 -2.636719 4.789062 -5.910156 4.789062 -10.460938 C 4.789062 -15.050781 7.945312 -18.363281 12.414062 -18.363281 C 16.847656 -18.363281 20 -15.050781 20 -10.460938 C 20 -5.910156 16.847656 -2.636719 12.414062 -2.636719 Z M 12.414062 -2.636719 "/></g></g></g><g fill="#000000" fill-opacity="1"><g transform="translate(326.292483, 295.986243)"><g><path d="M 26.828125 0 L 34.613281 -21.039062 L 31.378906 -21.039062 L 25.230469 -3.234375 L 19.042969 -21.039062 L 15.769531 -21.039062 L 9.660156 -3.234375 L 3.433594 -21.039062 L 0.160156 -21.039062 L 8.023438 0 L 11.257812 0 L 17.40625 -17.085938 L 23.59375 0 Z M 26.828125 0 "/></g></g></g><g fill="#000000" fill-opacity="1"><g transform="translate(360.783354, 295.986243)"><g><path d="M 16.847656 0 L 19.882812 0 L 19.839844 -13.894531 C 19.800781 -18.402344 16.925781 -21.160156 11.738281 -21.160156 C 8.144531 -21.160156 5.867188 -20.121094 3.152344 -18.324219 L 4.472656 -16.046875 C 6.667969 -17.566406 8.824219 -18.445312 11.136719 -18.445312 C 14.851562 -18.445312 16.765625 -16.605469 16.765625 -13.535156 L 16.765625 -12.296875 L 9.859375 -12.296875 C 4.910156 -12.257812 1.996094 -9.941406 1.996094 -6.269531 C 1.996094 -2.636719 4.789062 0.160156 9.140625 0.160156 C 12.496094 0.160156 15.171875 -0.957031 16.847656 -3.234375 Z M 9.742188 -2.554688 C 6.785156 -2.554688 4.910156 -4.070312 4.910156 -6.386719 C 4.910156 -8.703125 6.746094 -9.78125 10.261719 -9.78125 L 16.808594 -9.78125 L 16.808594 -7.265625 C 16.007812 -4.351562 13.292969 -2.554688 9.742188 -2.554688 Z M 9.742188 -2.554688 "/></g></g></g><g fill="#000000" fill-opacity="1"><g transform="translate(383.817188, 295.986243)"><g><path d="M 15.050781 -21.160156 C 11.21875 -21.117188 8.382812 -19.601562 6.90625 -16.40625 L 6.90625 -21.039062 L 3.792969 -21.039062 L 3.792969 0 L 6.90625 0 L 6.90625 -11.296875 C 7.265625 -15.289062 9.820312 -18.003906 13.972656 -18.042969 C 17.683594 -18.042969 19.921875 -15.847656 19.921875 -12.136719 L 19.921875 0 L 23.035156 0 L 23.035156 -12.972656 C 23.035156 -18.042969 20.082031 -21.160156 15.050781 -21.160156 Z M 15.050781 -21.160156 "/></g></g></g><g fill="#000000" fill-opacity="1"><g transform="translate(410.004706, 295.986243)"><g><path d="M 13.773438 -3.953125 C 12.613281 -3.234375 11.496094 -2.875 10.417969 -2.875 C 8.621094 -2.875 7.625 -3.832031 7.625 -6.386719 L 7.625 -17.84375 L 14.292969 -17.84375 L 14.292969 -20.398438 L 7.625 -20.359375 L 7.625 -25.910156 L 4.550781 -25.910156 L 4.550781 -20.359375 L 1.515625 -20.359375 L 1.515625 -17.84375 L 4.550781 -17.84375 L 4.550781 -5.828125 C 4.550781 -1.675781 6.828125 0.160156 9.902344 0.160156 C 11.578125 0.121094 13.175781 -0.4375 14.652344 -1.4375 Z M 13.773438 -3.953125 "/></g></g></g><g fill="#000000" fill-opacity="1"><g transform="translate(425.573497, 295.986243)"><g><path d="M 9.382812 -21.160156 C 5.550781 -21.160156 2.074219 -19.480469 2.074219 -15.449219 C 2.035156 -7.984375 13.8125 -10.578125 13.691406 -5.507812 C 13.652344 -3.433594 11.65625 -2.515625 9.183594 -2.515625 C 6.707031 -2.515625 3.992188 -3.511719 2.195312 -5.191406 L 0.996094 -2.835938 C 2.992188 -0.917969 6.066406 0.121094 9.0625 0.121094 C 13.09375 0.121094 16.765625 -1.714844 16.765625 -5.867188 C 16.765625 -13.414062 5.03125 -11.019531 5.03125 -15.6875 C 5.03125 -17.644531 6.828125 -18.484375 9.183594 -18.484375 C 11.136719 -18.484375 13.253906 -17.804688 14.890625 -16.765625 L 16.089844 -19.242188 C 14.332031 -20.441406 11.898438 -21.160156 9.382812 -21.160156 Z M 9.382812 -21.160156 "/></g></g></g><g fill="#000000" fill-opacity="1"><g transform="translate(443.657257, 295.986243)"><g/></g></g><g fill="#000000" fill-opacity="1"><g transform="translate(454.595331, 295.986243)"><g><path d="M 13.773438 -3.953125 C 12.613281 -3.234375 11.496094 -2.875 10.417969 -2.875 C 8.621094 -2.875 7.625 -3.832031 7.625 -6.386719 L 7.625 -17.84375 L 14.292969 -17.84375 L 14.292969 -20.398438 L 7.625 -20.359375 L 7.625 -25.910156 L 4.550781 -25.910156 L 4.550781 -20.359375 L 1.515625 -20.359375 L 1.515625 -17.84375 L 4.550781 -17.84375 L 4.550781 -5.828125 C 4.550781 -1.675781 6.828125 0.160156 9.902344 0.160156 C 11.578125 0.121094 13.175781 -0.4375 14.652344 -1.4375 Z M 13.773438 -3.953125 "/></g></g></g><g fill="#000000" fill-opacity="1"><g transform="translate(470.164121, 295.986243)"><g><path d="M 12.335938 -21.117188 C 6.109375 -21.117188 1.675781 -16.808594 1.675781 -10.539062 C 1.675781 -4.230469 6.109375 0.121094 12.335938 0.121094 C 18.5625 0.121094 22.996094 -4.230469 22.996094 -10.539062 C 22.996094 -16.808594 18.5625 -21.117188 12.335938 -21.117188 Z M 12.335938 -18.285156 C 16.726562 -18.285156 19.882812 -15.089844 19.882812 -10.5 C 19.882812 -5.867188 16.726562 -2.675781 12.335938 -2.675781 C 7.945312 -2.675781 4.789062 -5.867188 4.789062 -10.5 C 4.789062 -15.089844 7.945312 -18.285156 12.335938 -18.285156 Z M 12.335938 -18.285156 "/></g></g></g><g fill="#000000" fill-opacity="1"><g transform="translate(494.834674, 295.986243)"><g/></g></g><g fill="#000000" fill-opacity="1"><g transform="translate(505.772747, 295.986243)"><g><path d="M 15.210938 -21.160156 C 11.539062 -21.160156 8.664062 -19.441406 7.105469 -16.488281 L 7.105469 -29.621094 L 3.992188 -29.621094 L 3.992188 0 L 7.105469 0 L 7.105469 -4.511719 C 8.664062 -1.597656 11.539062 0.121094 15.289062 0.121094 C 21.238281 0.121094 25.308594 -4.230469 25.308594 -10.460938 C 25.308594 -16.765625 21.160156 -21.160156 15.210938 -21.160156 Z M 14.652344 -2.714844 C 10.21875 -2.714844 7.105469 -5.949219 7.105469 -10.539062 C 7.105469 -15.089844 10.21875 -18.363281 14.652344 -18.363281 C 19.042969 -18.363281 22.15625 -15.050781 22.15625 -10.539062 C 22.15625 -5.988281 19.042969 -2.714844 14.652344 -2.714844 Z M 14.652344 -2.714844 "/></g></g></g><g fill="#000000" fill-opacity="1"><g transform="translate(532.758675, 295.986243)"><g><path d="M 12.097656 -21.117188 C 5.988281 -21.117188 1.675781 -16.765625 1.675781 -10.5 C 1.675781 -4.230469 5.949219 0.121094 12.136719 0.121094 C 15.648438 0.121094 18.601562 -1.15625 20.597656 -3.394531 L 18.882812 -5.230469 C 17.246094 -3.511719 14.96875 -2.59375 12.375 -2.59375 C 8.304688 -2.59375 5.308594 -5.191406 4.75 -9.300781 L 21.917969 -9.300781 C 22.234375 -16.449219 18.882812 -21.160156 12.097656 -21.117188 Z M 4.75 -11.855469 C 5.230469 -15.847656 8.105469 -18.445312 12.097656 -18.445312 C 16.207031 -18.445312 18.921875 -15.890625 19.121094 -11.855469 Z M 4.75 -11.855469 "/></g></g></g><g fill="#000000" fill-opacity="1"><g transform="translate(326.292483, 350.632154)"><g><path d="M 11.21875 -26.867188 C 12.296875 -26.867188 13.453125 -26.46875 14.410156 -25.789062 L 15.6875 -28.304688 C 14.410156 -29.261719 12.773438 -29.742188 11.179688 -29.78125 C 7.664062 -29.78125 4.429688 -27.304688 4.429688 -22.714844 L 4.429688 -20.398438 L 1.714844 -20.398438 L 1.714844 -17.84375 L 4.429688 -17.84375 L 4.429688 0 L 7.503906 0 L 7.503906 -17.84375 L 13.535156 -17.84375 L 13.535156 -20.398438 L 7.503906 -20.398438 L 7.503906 -23.113281 C 7.503906 -25.550781 9.183594 -26.867188 11.21875 -26.867188 Z M 11.21875 -26.867188 "/></g></g></g><g fill="#000000" fill-opacity="1"><g transform="translate(339.226564, 350.632154)"><g><path d="M 12.335938 -21.117188 C 6.109375 -21.117188 1.675781 -16.808594 1.675781 -10.539062 C 1.675781 -4.230469 6.109375 0.121094 12.335938 0.121094 C 18.5625 0.121094 22.996094 -4.230469 22.996094 -10.539062 C 22.996094 -16.808594 18.5625 -21.117188 12.335938 -21.117188 Z M 12.335938 -18.285156 C 16.726562 -18.285156 19.882812 -15.089844 19.882812 -10.5 C 19.882812 -5.867188 16.726562 -2.675781 12.335938 -2.675781 C 7.945312 -2.675781 4.789062 -5.867188 4.789062 -10.5 C 4.789062 -15.089844 7.945312 -18.285156 12.335938 -18.285156 Z M 12.335938 -18.285156 "/></g></g></g><g fill="#000000" fill-opacity="1"><g transform="translate(363.897116, 350.632154)"><g><path d="M 22.035156 -21.039062 L 18.921875 -21.039062 L 18.921875 -10.699219 C 18.921875 -6.226562 16.367188 -3.074219 12.015625 -2.992188 C 8.382812 -2.992188 6.1875 -5.191406 6.1875 -8.902344 L 6.1875 -21.039062 L 3.074219 -21.039062 L 3.074219 -8.0625 C 3.074219 -2.992188 6.027344 0.121094 10.9375 0.121094 C 14.730469 0.078125 17.527344 -1.476562 18.921875 -4.75 L 18.921875 0 L 22.035156 0 Z M 22.035156 -21.039062 "/></g></g></g><g fill="#000000" fill-opacity="1"><g transform="translate(389.725345, 350.632154)"><g><path d="M 15.050781 -21.160156 C 11.21875 -21.117188 8.382812 -19.601562 6.90625 -16.40625 L 6.90625 -21.039062 L 3.792969 -21.039062 L 3.792969 0 L 6.90625 0 L 6.90625 -11.296875 C 7.265625 -15.289062 9.820312 -18.003906 13.972656 -18.042969 C 17.683594 -18.042969 19.921875 -15.847656 19.921875 -12.136719 L 19.921875 0 L 23.035156 0 L 23.035156 -12.972656 C 23.035156 -18.042969 20.082031 -21.160156 15.050781 -21.160156 Z M 15.050781 -21.160156 "/></g></g></g><g fill="#000000" fill-opacity="1"><g transform="translate(415.912864, 350.632154)"><g><path d="M 23.113281 -29.621094 L 20 -29.621094 L 20 -16.488281 C 18.445312 -19.480469 15.53125 -21.199219 11.777344 -21.199219 C 5.828125 -21.199219 1.675781 -16.847656 1.675781 -10.539062 C 1.675781 -4.273438 5.828125 0.160156 11.816406 0.160156 C 15.570312 0.160156 18.445312 -1.558594 20 -4.511719 L 20 0 L 23.113281 0 Z M 12.414062 -2.636719 C 7.945312 -2.636719 4.789062 -5.910156 4.789062 -10.460938 C 4.789062 -15.050781 7.945312 -18.363281 12.414062 -18.363281 C 16.847656 -18.363281 20 -15.050781 20 -10.460938 C 20 -5.910156 16.847656 -2.636719 12.414062 -2.636719 Z M 12.414062 -2.636719 "/></g></g></g><g fill="#000000" fill-opacity="1"><g transform="translate(443.018532, 350.632154)"><g><path d="M 5.910156 -20.71875 L 5.910156 -27.464844 L 2.914062 -27.464844 L 2.914062 -20.71875 L 3.351562 -8.421875 L 5.429688 -8.421875 Z M 4.390625 -3.832031 C 3.3125 -3.832031 2.476562 -2.953125 2.476562 -1.757812 C 2.476562 -0.558594 3.3125 0.320312 4.390625 0.320312 C 5.507812 0.320312 6.347656 -0.558594 6.347656 -1.757812 C 6.347656 -2.953125 5.507812 -3.832031 4.390625 -3.832031 Z M 4.390625 -3.832031 "/></g></g></g><g fill="#000000" fill-opacity="1"><g transform="translate(326.292483, 514.569887)"><g><path d="M 15.84375 0.484375 C 13.050781 0.484375 10.609375 -0.0195312 8.515625 -1.03125 C 6.429688 -2.050781 4.828125 -3.476562 3.703125 -5.3125 C 2.585938 -7.144531 2.03125 -9.257812 2.03125 -11.65625 C 2.03125 -14.820312 2.753906 -17.675781 4.203125 -20.21875 C 5.660156 -22.757812 7.707031 -24.757812 10.34375 -26.21875 C 12.976562 -27.6875 16 -28.421875 19.40625 -28.421875 C 21.90625 -28.421875 24.113281 -27.992188 26.03125 -27.140625 C 27.945312 -26.296875 29.394531 -25.070312 30.375 -23.46875 L 25.703125 -19.640625 C 24.210938 -21.828125 21.96875 -22.921875 18.96875 -22.921875 C 16.914062 -22.921875 15.101562 -22.441406 13.53125 -21.484375 C 11.957031 -20.523438 10.738281 -19.21875 9.875 -17.5625 C 9.007812 -15.914062 8.578125 -14.082031 8.578125 -12.0625 C 8.578125 -9.90625 9.257812 -8.191406 10.625 -6.921875 C 12 -5.660156 13.925781 -5.03125 16.40625 -5.03125 C 19.363281 -5.03125 21.835938 -6.109375 23.828125 -8.265625 L 27.671875 -4.34375 C 24.898438 -1.125 20.957031 0.484375 15.84375 0.484375 Z M 15.84375 0.484375 "/></g></g></g><g fill="#000000" fill-opacity="1"><g transform="translate(355.553832, 514.569887)"><g><path d="M 6.671875 -29.625 L 12.890625 -29.625 L 6.984375 0 L 0.765625 0 Z M 6.671875 -29.625 "/></g></g></g><g fill="#000000" fill-opacity="1"><g transform="translate(367.569751, 514.569887)"><g><path d="M 5.03125 -21.484375 L 11.21875 -21.484375 L 6.953125 0 L 0.765625 0 Z M 9.1875 -24.46875 C 8.125 -24.46875 7.25 -24.78125 6.5625 -25.40625 C 5.882812 -26.03125 5.546875 -26.796875 5.546875 -27.703125 C 5.546875 -28.765625 5.925781 -29.648438 6.6875 -30.359375 C 7.445312 -31.066406 8.441406 -31.421875 9.671875 -31.421875 C 10.753906 -31.421875 11.632812 -31.117188 12.3125 -30.515625 C 13 -29.921875 13.34375 -29.179688 13.34375 -28.296875 C 13.34375 -27.160156 12.953125 -26.238281 12.171875 -25.53125 C 11.398438 -24.820312 10.40625 -24.46875 9.1875 -24.46875 Z M 9.1875 -24.46875 "/></g></g></g><g fill="#000000" fill-opacity="1"><g transform="translate(379.545749, 514.569887)"><g><path d="M 12.09375 0.3125 C 9.882812 0.3125 7.953125 -0.0820312 6.296875 -0.875 C 4.648438 -1.675781 3.378906 -2.800781 2.484375 -4.25 C 1.597656 -5.695312 1.15625 -7.378906 1.15625 -9.296875 C 1.15625 -11.671875 1.710938 -13.800781 2.828125 -15.6875 C 3.953125 -17.582031 5.507812 -19.070312 7.5 -20.15625 C 9.5 -21.25 11.75 -21.796875 14.25 -21.796875 C 16.539062 -21.796875 18.515625 -21.320312 20.171875 -20.375 C 21.835938 -19.4375 23.082031 -18.101562 23.90625 -16.375 L 18.640625 -13.734375 C 17.710938 -15.671875 16.117188 -16.640625 13.859375 -16.640625 C 12.628906 -16.640625 11.53125 -16.335938 10.5625 -15.734375 C 9.59375 -15.140625 8.832031 -14.3125 8.28125 -13.25 C 7.738281 -12.1875 7.46875 -10.976562 7.46875 -9.625 C 7.46875 -8.15625 7.90625 -6.988281 8.78125 -6.125 C 9.65625 -5.257812 10.878906 -4.828125 12.453125 -4.828125 C 14.742188 -4.828125 16.5 -5.785156 17.71875 -7.703125 L 22.3125 -4.828125 C 21.28125 -3.203125 19.863281 -1.9375 18.0625 -1.03125 C 16.269531 -0.132812 14.28125 0.3125 12.09375 0.3125 Z M 12.09375 0.3125 "/></g></g></g><g fill="#000000" fill-opacity="1"><g transform="translate(403.138467, 514.569887)"><g><path d="M 16.765625 -12.140625 L 24.15625 0 L 16.921875 0 L 11.8125 -8.34375 L 8.03125 -5.1875 L 6.984375 0 L 0.765625 0 L 6.671875 -29.625 L 12.890625 -29.625 L 9.578125 -13.046875 L 19.875 -21.484375 L 27.984375 -21.484375 Z M 16.765625 -12.140625 "/></g></g></g><g fill="#000000" fill-opacity="1"><g transform="translate(428.886865, 514.569887)"><g/></g></g><g fill="#000000" fill-opacity="1"><g transform="translate(440.184216, 514.569887)"><g><path d="M 17.53125 -21.796875 C 19.925781 -21.796875 21.828125 -21.15625 23.234375 -19.875 C 24.640625 -18.601562 25.34375 -16.796875 25.34375 -14.453125 C 25.34375 -13.597656 25.253906 -12.742188 25.078125 -11.890625 L 22.671875 0 L 16.453125 0 L 18.765625 -11.5 C 18.867188 -11.945312 18.921875 -12.4375 18.921875 -12.96875 C 18.921875 -14.09375 18.613281 -14.945312 18 -15.53125 C 17.394531 -16.113281 16.476562 -16.40625 15.25 -16.40625 C 13.65625 -16.40625 12.332031 -15.945312 11.28125 -15.03125 C 10.226562 -14.113281 9.515625 -12.738281 9.140625 -10.90625 L 6.984375 0 L 0.765625 0 L 6.671875 -29.625 L 12.890625 -29.625 L 10.90625 -19.515625 C 12.738281 -21.035156 14.945312 -21.796875 17.53125 -21.796875 Z M 17.53125 -21.796875 "/></g></g></g><g fill="#000000" fill-opacity="1"><g transform="translate(467.768926, 514.569887)"><g><path d="M 24.078125 -12.328125 C 24.078125 -11.347656 23.957031 -10.257812 23.71875 -9.0625 L 7.265625 -9.0625 C 7.472656 -6.132812 9.320312 -4.671875 12.8125 -4.671875 C 13.90625 -4.671875 14.953125 -4.84375 15.953125 -5.1875 C 16.953125 -5.53125 17.820312 -6.023438 18.5625 -6.671875 L 21.15625 -2.5625 C 19.957031 -1.601562 18.585938 -0.882812 17.046875 -0.40625 C 15.503906 0.0703125 13.878906 0.3125 12.171875 0.3125 C 9.960938 0.3125 8.023438 -0.078125 6.359375 -0.859375 C 4.703125 -1.640625 3.425781 -2.757812 2.53125 -4.21875 C 1.644531 -5.6875 1.203125 -7.378906 1.203125 -9.296875 C 1.203125 -11.671875 1.738281 -13.804688 2.8125 -15.703125 C 3.894531 -17.609375 5.394531 -19.097656 7.3125 -20.171875 C 9.226562 -21.253906 11.410156 -21.796875 13.859375 -21.796875 C 15.929688 -21.796875 17.734375 -21.410156 19.265625 -20.640625 C 20.796875 -19.867188 21.976562 -18.765625 22.8125 -17.328125 C 23.65625 -15.890625 24.078125 -14.222656 24.078125 -12.328125 Z M 13.578125 -17.125 C 12.109375 -17.125 10.867188 -16.726562 9.859375 -15.9375 C 8.847656 -15.15625 8.128906 -14.070312 7.703125 -12.6875 L 18.359375 -12.6875 C 18.359375 -14.070312 17.925781 -15.15625 17.0625 -15.9375 C 16.195312 -16.726562 15.035156 -17.125 13.578125 -17.125 Z M 13.578125 -17.125 "/></g></g></g><g fill="#000000" fill-opacity="1"><g transform="translate(492.838677, 514.569887)"><g><path d="M 10.421875 -18.921875 C 11.347656 -19.929688 12.46875 -20.660156 13.78125 -21.109375 C 15.101562 -21.566406 16.65625 -21.796875 18.4375 -21.796875 L 17.328125 -16.046875 C 16.578125 -16.097656 16.097656 -16.125 15.890625 -16.125 C 13.992188 -16.125 12.476562 -15.65625 11.34375 -14.71875 C 10.21875 -13.789062 9.457031 -12.34375 9.0625 -10.375 L 6.984375 0 L 0.765625 0 L 5.03125 -21.484375 L 10.9375 -21.484375 Z M 10.421875 -18.921875 "/></g></g></g><g fill="#000000" fill-opacity="1"><g transform="translate(510.044197, 514.569887)"><g><path d="M 24.078125 -12.328125 C 24.078125 -11.347656 23.957031 -10.257812 23.71875 -9.0625 L 7.265625 -9.0625 C 7.472656 -6.132812 9.320312 -4.671875 12.8125 -4.671875 C 13.90625 -4.671875 14.953125 -4.84375 15.953125 -5.1875 C 16.953125 -5.53125 17.820312 -6.023438 18.5625 -6.671875 L 21.15625 -2.5625 C 19.957031 -1.601562 18.585938 -0.882812 17.046875 -0.40625 C 15.503906 0.0703125 13.878906 0.3125 12.171875 0.3125 C 9.960938 0.3125 8.023438 -0.078125 6.359375 -0.859375 C 4.703125 -1.640625 3.425781 -2.757812 2.53125 -4.21875 C 1.644531 -5.6875 1.203125 -7.378906 1.203125 -9.296875 C 1.203125 -11.671875 1.738281 -13.804688 2.8125 -15.703125 C 3.894531 -17.609375 5.394531 -19.097656 7.3125 -20.171875 C 9.226562 -21.253906 11.410156 -21.796875 13.859375 -21.796875 C 15.929688 -21.796875 17.734375 -21.410156 19.265625 -20.640625 C 20.796875 -19.867188 21.976562 -18.765625 22.8125 -17.328125 C 23.65625 -15.890625 24.078125 -14.222656 24.078125 -12.328125 Z M 13.578125 -17.125 C 12.109375 -17.125 10.867188 -16.726562 9.859375 -15.9375 C 8.847656 -15.15625 8.128906 -14.070312 7.703125 -12.6875 L 18.359375 -12.6875 C 18.359375 -14.070312 17.925781 -15.15625 17.0625 -15.9375 C 16.195312 -16.726562 15.035156 -17.125 13.578125 -17.125 Z M 13.578125 -17.125 "/></g></g></g><g fill="#000000" fill-opacity="1"><g transform="translate(535.11396, 514.569887)"><g/></g></g><g fill="#000000" fill-opacity="1"><g transform="translate(546.411311, 514.569887)"><g><path d="M 2.671875 -13.734375 L 13.96875 -13.734375 L 12.96875 -8.75 L 1.671875 -8.75 Z M 2.671875 -13.734375 "/></g></g></g><g fill="#000000" fill-opacity="1"><g transform="translate(561.820429, 514.569887)"><g><path d="M 22.640625 -16.5625 L 21.59375 -11.375 L 1.15625 -4.15625 L 2.234375 -9.375 L 16.40625 -14.25 L 4.15625 -19.078125 L 5.109375 -23.796875 Z M 22.640625 -16.5625 "/></g></g></g></svg>